<svg version="1.1" viewBox="0.0 0.0 960.0 540.0" fill="none" stroke="none" stroke-linecap="square" stroke-miterlimit="10" xmlns:xlink="http://www.w3.org/1999/xlink" xmlns="http://www.w3.org/2000/svg"><clipPath id="g112bdfcd05d_0_0.0"><path d="m0 0l960.0 0l0 540.0l-960.0 0l0 -540.0z" clip-rule="nonzero"/></clipPath><g clip-path="url(#g112bdfcd05d_0_0.0)"><path fill="#ffffff" d="m0 0l960.0 0l0 540.0l-960.0 0z" fill-rule="evenodd"/><path fill="#ffffff" d="m712.0197 95.99869l-240.00003 346.01575l-240.0 -346.01575z" fill-rule="evenodd"/><path stroke="#ff4500" stroke-width="1.0" stroke-linejoin="round" stroke-linecap="butt" d="m712.0197 95.99869l-240.00003 346.01575l-240.0 -346.01575z" fill-rule="evenodd"/><path fill="#ff4500" d="m235.57393 150.73924l39.401566 6.960617l-50.488174 285.5748l-39.40158 -6.9606323z" fill-rule="evenodd"/><path stroke="#ff4500" stroke-width="1.0" stroke-linejoin="round" stroke-linecap="butt" d="m235.57393 150.73924l39.401566 6.960617l-50.488174 285.5748l-39.40158 -6.9606323z" fill-rule="evenodd"/><path fill="#ff4500" d="m609.8391 247.43436l39.307068 -7.401581l37.039368 196.56693l-39.307068 7.401581z" fill-rule="evenodd"/><path stroke="#ff4500" stroke-width="1.0" stroke-linejoin="round" stroke-linecap="butt" d="m609.8391 247.43436l39.307068 -7.401581l37.039368 196.56693l-39.307068 7.401581z" fill-rule="evenodd"/><path fill="#ff4500" d="m296.9047 240.09639l39.496063 6.2677307l-31.275604 197.57478l-39.496063 -6.2677z" fill-rule="evenodd"/><path stroke="#ff4500" stroke-width="1.0" stroke-linejoin="round" stroke-linecap="butt" d="m296.9047 240.09639l39.496063 6.2677307l-31.275604 197.57478l-39.496063 -6.2677z" fill-rule="evenodd"/><path fill="#000000" fill-opacity="0.0" d="m401.7651 126.355644l142.70865 0l0 135.74802l-142.70865 0z" fill-rule="evenodd"/><path fill="#ff4500" d="m448.68387 141.33315l5.578125 13.921875l5.578125 -13.921875l2.921875 0l0 17.0625l-2.25 0l0 -6.640625l0.203125 -7.171875l-5.59375 13.8125l-1.734375 0l-5.578125 -13.78125l0.21875 7.140625l0 6.640625l-2.25 0l0 -17.0625l2.90625 0zm25.53125 17.0625q-0.1875 -0.375 -0.296875 -1.34375q-1.515625 1.578125 -3.609375 1.578125q-1.875 0 -3.078125 -1.0625q-1.203125 -1.0625 -1.203125 -2.6875q0 -1.984375 1.5 -3.078125q1.515625 -1.09375 4.234375 -1.09375l2.109375 0l0 -1.0q0 -1.140625 -0.6875 -1.8125q-0.671875 -0.671875 -1.984375 -0.671875q-1.171875 0 -1.953125 0.59375q-0.78125 0.578125 -0.78125 1.40625l-2.1875 0q0 -0.9375 0.671875 -1.828125q0.6875 -0.890625 1.828125 -1.40625q1.15625 -0.515625 2.546875 -0.515625q2.1875 0 3.421875 1.109375q1.25 1.09375 1.296875 3.015625l0 5.828125q0 1.75 0.453125 2.78125l0 0.1875l-2.28125 0zm-3.59375 -1.65625q1.015625 0 1.921875 -0.515625q0.921875 -0.53125 1.328125 -1.375l0 -2.609375l-1.6875 0q-3.984375 0 -3.984375 2.328125q0 1.03125 0.671875 1.609375q0.6875 0.5625 1.75 0.5625zm12.3671875 -4.21875l-1.359375 1.421875l0 4.453125l-2.171875 0l0 -18.0l2.171875 0l0 10.890625l1.15625 -1.40625l3.953125 -4.171875l2.625 0l-4.921875 5.296875l5.5 7.390625l-2.546875 0l-4.40625 -5.875zm13.6484375 6.109375q-2.578125 0 -4.203125 -1.6875q-1.609375 -1.703125 -1.609375 -4.53125l0 -0.40625q0 -1.890625 0.71875 -3.359375q0.71875 -1.484375 2.015625 -2.328125q1.296875 -0.84375 2.8125 -0.84375q2.46875 0 3.828125 1.640625q1.375 1.625 1.375 4.65625l0 0.90625l-8.578125 0q0.046875 1.875 1.09375 3.03125q1.046875 1.15625 2.65625 1.15625q1.15625 0 1.953125 -0.46875q0.796875 -0.46875 1.390625 -1.25l1.328125 1.03125q-1.59375 2.453125 -4.78125 2.453125zm-0.265625 -11.375q-1.3125 0 -2.203125 0.96875q-0.890625 0.953125 -1.109375 2.671875l6.359375 0l0 -0.171875q-0.09375 -1.640625 -0.890625 -2.546875q-0.796875 -0.921875 -2.15625 -0.921875z" fill-rule="nonzero"/><path fill="#ff4500" d="m449.54324 180.99252q0 2.890625 -1.328125 4.671875q-1.328125 1.765625 -3.59375 1.765625q-2.296875 0 -3.625 -1.46875l0 6.109375l-2.171875 0l0 -17.5625l1.984375 0l0.109375 1.40625q1.3125 -1.640625 3.671875 -1.640625q2.28125 0 3.609375 1.734375q1.34375 1.71875 1.34375 4.78125l0 0.203125zm-2.171875 -0.25q0 -2.140625 -0.921875 -3.375q-0.90625 -1.25 -2.5 -1.25q-1.96875 0 -2.953125 1.75l0 6.0625q0.96875 1.734375 2.96875 1.734375q1.5625 0 2.484375 -1.234375q0.921875 -1.25 0.921875 -3.6875zm10.183594 6.6875q-2.578125 0 -4.203125 -1.6875q-1.609375 -1.703125 -1.609375 -4.53125l0 -0.40625q0 -1.890625 0.71875 -3.359375q0.71875 -1.484375 2.015625 -2.328125q1.296875 -0.84375 2.8125 -0.84375q2.46875 0 3.828125 1.640625q1.375 1.625 1.375 4.65625l0 0.90625l-8.578125 0q0.046875 1.875 1.09375 3.03125q1.046875 1.15625 2.65625 1.15625q1.15625 0 1.953125 -0.46875q0.796875 -0.46875 1.390625 -1.25l1.328125 1.03125q-1.59375 2.453125 -4.78125 2.453125zm-0.265625 -11.375q-1.3125 0 -2.203125 0.96875q-0.890625 0.953125 -1.109375 2.671875l6.359375 0l0 -0.171875q-0.09375 -1.640625 -0.890625 -2.546875q-0.796875 -0.921875 -2.15625 -0.921875zm7.1367188 4.6875q0 -1.875 0.734375 -3.359375q0.734375 -1.484375 2.03125 -2.296875q1.3125 -0.8125 3.0 -0.8125q2.578125 0 4.171875 1.796875q1.609375 1.796875 1.609375 4.765625l0 0.15625q0 1.859375 -0.71875 3.328125q-0.703125 1.46875 -2.015625 2.296875q-1.3125 0.8125 -3.03125 0.8125q-2.578125 0 -4.1875 -1.796875q-1.59375 -1.796875 -1.59375 -4.75l0 -0.140625zm2.1875 0.25q0 2.109375 0.96875 3.390625q0.984375 1.28125 2.625 1.28125q1.65625 0 2.625 -1.296875q0.96875 -1.296875 0.96875 -3.625q0 -2.09375 -0.984375 -3.390625q-0.984375 -1.296875 -2.625 -1.296875q-1.609375 0 -2.59375 1.28125q-0.984375 1.28125 -0.984375 3.65625zm22.796875 0q0 2.890625 -1.328125 4.671875q-1.328125 1.765625 -3.59375 1.765625q-2.296875 0 -3.625 -1.46875l0 6.109375l-2.171875 0l0 -17.5625l1.984375 0l0.109375 1.40625q1.3125 -1.640625 3.671875 -1.640625q2.28125 0 3.609375 1.734375q1.34375 1.71875 1.34375 4.78125l0 0.203125zm-2.171875 -0.25q0 -2.140625 -0.921875 -3.375q-0.90625 -1.25 -2.5 -1.25q-1.96875 0 -2.953125 1.75l0 6.0625q0.96875 1.734375 2.96875 1.734375q1.5625 0 2.484375 -1.234375q0.921875 -1.25 0.921875 -3.6875zm7.2773438 6.453125l-2.171875 0l0 -18.0l2.171875 0l0 18.0zm8.730469 0.234375q-2.578125 0 -4.203125 -1.6875q-1.609375 -1.703125 -1.609375 -4.53125l0 -0.40625q0 -1.890625 0.71875 -3.359375q0.71875 -1.484375 2.015625 -2.328125q1.296875 -0.84375 2.8125 -0.84375q2.46875 0 3.828125 1.640625q1.375 1.625 1.375 4.65625l0 0.90625l-8.578125 0q0.046875 1.875 1.09375 3.03125q1.046875 1.15625 2.65625 1.15625q1.15625 0 1.953125 -0.46875q0.796875 -0.46875 1.390625 -1.25l1.328125 1.03125q-1.59375 2.453125 -4.78125 2.453125zm-0.265625 -11.375q-1.3125 0 -2.203125 0.96875q-0.890625 0.953125 -1.109375 2.671875l6.359375 0l0 -0.171875q-0.09375 -1.640625 -0.890625 -2.546875q-0.796875 -0.921875 -2.15625 -0.921875z" fill-rule="nonzero"/><path fill="#ff4500" d="m433.512 200.24565l0 3.0625l2.375 0l0 1.6875l-2.375 0l0 7.859375q0 0.765625 0.3125 1.140625q0.328125 0.375 1.09375 0.375q0.375 0 1.03125 -0.140625l0 1.765625q-0.859375 0.234375 -1.671875 0.234375q-1.453125 0 -2.1875 -0.875q-0.734375 -0.890625 -0.734375 -2.5l0 -7.859375l-2.3125 0l0 -1.6875l2.3125 0l0 -3.0625l2.15625 0zm7.0742188 4.609375q1.4375 -1.78125 3.75 -1.78125q4.015625 0 4.046875 4.546875l0 8.375l-2.15625 0l0 -8.390625q-0.015625 -1.375 -0.640625 -2.03125q-0.609375 -0.65625 -1.90625 -0.65625q-1.0625 0 -1.859375 0.5625q-0.796875 0.5625 -1.234375 1.484375l0 9.03125l-2.171875 0l0 -18.0l2.171875 0l0 6.859375zm13.40625 11.140625l-2.171875 0l0 -12.6875l2.171875 0l0 12.6875zm-2.34375 -16.046875q0 -0.53125 0.3125 -0.890625q0.328125 -0.359375 0.953125 -0.359375q0.640625 0 0.96875 0.359375q0.328125 0.359375 0.328125 0.890625q0 0.53125 -0.328125 0.890625q-0.328125 0.34375 -0.96875 0.34375q-0.625 0 -0.953125 -0.34375q-0.3125 -0.359375 -0.3125 -0.890625zm7.8554688 3.359375l0.078125 1.59375q1.453125 -1.828125 3.796875 -1.828125q4.015625 0 4.046875 4.546875l0 8.375l-2.15625 0l0 -8.390625q-0.015625 -1.375 -0.640625 -2.03125q-0.609375 -0.65625 -1.90625 -0.65625q-1.0625 0 -1.859375 0.5625q-0.796875 0.5625 -1.234375 1.484375l0 9.03125l-2.171875 0l0 -12.6875l2.046875 0zm14.7421875 6.8125l-1.359375 1.421875l0 4.453125l-2.171875 0l0 -18.0l2.171875 0l0 10.890625l1.15625 -1.40625l3.953125 -4.171875l2.625 0l-4.921875 5.296875l5.5 7.390625l-2.546875 0l-4.40625 -5.875zm15.621094 5.875l0 -11.0l-2.0 0l0 -1.6875l2.0 0l0 -1.296875q0 -2.03125 1.09375 -3.140625q1.09375 -1.125 3.078125 -1.125q0.75 0 1.5 0.203125l-0.125 1.75q-0.546875 -0.09375 -1.171875 -0.09375q-1.046875 0 -1.625 0.609375q-0.578125 0.609375 -0.578125 1.765625l0 1.328125l2.703125 0l0 1.6875l-2.703125 0l0 11.0l-2.171875 0zm6.6914062 -6.453125q0 -1.875 0.734375 -3.359375q0.734375 -1.484375 2.03125 -2.296875q1.3125 -0.8125 3.0 -0.8125q2.578125 0 4.171875 1.796875q1.609375 1.796875 1.609375 4.765625l0 0.15625q0 1.859375 -0.71875 3.328125q-0.703125 1.46875 -2.015625 2.296875q-1.3125 0.8125 -3.03125 0.8125q-2.578125 0 -4.1875 -1.796875q-1.59375 -1.796875 -1.59375 -4.75l0 -0.140625zm2.1875 0.25q0 2.109375 0.96875 3.390625q0.984375 1.28125 2.625 1.28125q1.65625 0 2.625 -1.296875q0.96875 -1.296875 0.96875 -3.625q0 -2.09375 -0.984375 -3.390625q-0.984375 -1.296875 -2.625 -1.296875q-1.609375 0 -2.59375 1.28125q-0.984375 1.28125 -0.984375 3.65625zm18.203156 -4.53125q-0.484375 -0.078125 -1.0625 -0.078125q-2.125 0 -2.890625 1.8125l0 9.0l-2.1719055 0l0 -12.6875l2.1094055 0l0.03125 1.46875q1.078125 -1.703125 3.03125 -1.703125q0.625 0 0.953125 0.171875l0 2.015625z" fill-rule="nonzero"/><path fill="#ff4500" d="m416.55496 229.04565l0 3.0625l2.375 0l0 1.6875l-2.375 0l0 7.859375q0 0.765625 0.3125 1.140625q0.328125 0.375 1.09375 0.375q0.375 0 1.03125 -0.140625l0 1.765625q-0.859375 0.234375 -1.671875 0.234375q-1.453125 0 -2.1875 -0.875q-0.734375 -0.890625 -0.734375 -2.5l0 -7.859375l-2.3125 0l0 -1.6875l2.3125 0l0 -3.0625l2.15625 0zm7.0742188 4.609375q1.4375 -1.78125 3.75 -1.78125q4.015625 0 4.046875 4.546875l0 8.375l-2.15625 0l0 -8.390625q-0.015625 -1.375 -0.640625 -2.03125q-0.609375 -0.65625 -1.90625 -0.65625q-1.0625 0 -1.859375 0.5625q-0.796875 0.5625 -1.234375 1.484375l0 9.03125l-2.171875 0l0 -18.0l2.171875 0l0 6.859375zm16.3125 11.375q-2.578125 0 -4.203125 -1.6875q-1.609375 -1.703125 -1.609375 -4.53125l0 -0.40625q0 -1.890625 0.71875 -3.359375q0.71875 -1.484375 2.015625 -2.328125q1.296875 -0.84375 2.8125 -0.84375q2.46875 0 3.828125 1.640625q1.375 1.625 1.375 4.65625l0 0.90625l-8.578125 0q0.046875 1.875 1.09375 3.03125q1.046875 1.15625 2.65625 1.15625q1.15625 0 1.953125 -0.46875q0.796875 -0.46875 1.390625 -1.25l1.328125 1.03125q-1.59375 2.453125 -4.78125 2.453125zm-0.265625 -11.375q-1.3125 0 -2.203125 0.96875q-0.890625 0.953125 -1.109375 2.671875l6.359375 0l0 -0.171875q-0.09375 -1.640625 -0.890625 -2.546875q-0.796875 -0.921875 -2.15625 -0.921875zm9.761719 -1.546875l0.046875 1.40625q1.40625 -1.640625 3.765625 -1.640625q2.65625 0 3.625 2.046875q0.625 -0.921875 1.640625 -1.484375q1.015625 -0.5625 2.40625 -0.5625q4.171875 0 4.234375 4.421875l0 8.5l-2.171875 0l0 -8.375q0 -1.359375 -0.625 -2.03125q-0.609375 -0.671875 -2.078125 -0.671875q-1.203125 0 -2.0 0.71875q-0.796875 0.71875 -0.921875 1.9375l0 8.421875l-2.1875 0l0 -8.3125q0 -2.765625 -2.703125 -2.765625q-2.140625 0 -2.921875 1.8125l0 9.265625l-2.171875 0l0 -12.6875l2.0625 0zm26.378906 9.328125q0 -0.890625 -0.671875 -1.375q-0.65625 -0.484375 -2.3125 -0.828125q-1.640625 -0.359375 -2.609375 -0.84375q-0.96875 -0.5 -1.4375 -1.171875q-0.453125 -0.6875 -0.453125 -1.625q0 -1.5625 1.3125 -2.640625q1.328125 -1.078125 3.375 -1.078125q2.15625 0 3.5 1.125q1.34375 1.109375 1.34375 2.84375l-2.1875 0q0 -0.890625 -0.75 -1.53125q-0.75 -0.65625 -1.90625 -0.65625q-1.1875 0 -1.859375 0.515625q-0.65625 0.515625 -0.65625 1.359375q0 0.78125 0.609375 1.1875q0.625 0.390625 2.25 0.75q1.625 0.359375 2.625 0.875q1.015625 0.5 1.5 1.21875q0.484375 0.703125 0.484375 1.71875q0 1.703125 -1.359375 2.734375q-1.359375 1.015625 -3.515625 1.015625q-1.53125 0 -2.703125 -0.53125q-1.171875 -0.546875 -1.84375 -1.515625q-0.65625 -0.96875 -0.65625 -2.09375l2.171875 0q0.0625 1.09375 0.875 1.734375q0.8125 0.640625 2.15625 0.640625q1.21875 0 1.96875 -0.5q0.75 -0.5 0.75 -1.328125zm10.25 3.59375q-2.578125 0 -4.203125 -1.6875q-1.609375 -1.703125 -1.609375 -4.53125l0 -0.40625q0 -1.890625 0.71875 -3.359375q0.71875 -1.484375 2.015625 -2.328125q1.296875 -0.84375 2.8125 -0.84375q2.46875 0 3.828125 1.640625q1.375 1.625 1.375 4.65625l0 0.90625l-8.578125 0q0.046875 1.875 1.09375 3.03125q1.046875 1.15625 2.65625 1.15625q1.15625 0 1.953125 -0.46875q0.796875 -0.46875 1.390625 -1.25l1.328125 1.03125q-1.59375 2.453125 -4.78125 2.453125zm-0.265625 -11.375q-1.3125 0 -2.203125 0.96875q-0.890625 0.953125 -1.109375 2.671875l6.359375 0l0 -0.171875q-0.09375 -1.640625 -0.890625 -2.546875q-0.796875 -0.921875 -2.15625 -0.921875zm10.074219 11.140625l-2.171875 0l0 -18.0l2.171875 0l0 18.0zm7.6523438 -2.9375l3.140625 -9.75l2.21875 0l-4.546875 12.6875l-1.65625 0l-4.59375 -12.6875l2.21875 0l3.21875 9.75zm12.550812 3.171875q-2.578125 0 -4.2031555 -1.6875q-1.609375 -1.703125 -1.609375 -4.53125l0 -0.40625q0 -1.890625 0.71875 -3.359375q0.71875 -1.484375 2.0156555 -2.328125q1.296875 -0.84375 2.8125 -0.84375q2.46875 0 3.828125 1.640625q1.375 1.625 1.375 4.65625l0 0.90625l-8.578125 0q0.046875 1.875 1.09375 3.03125q1.046875 1.15625 2.65625 1.15625q1.15625 0 1.953125 -0.46875q0.796875 -0.46875 1.390625 -1.25l1.328125 1.03125q-1.59375 2.453125 -4.78125 2.453125zm-0.265625 -11.375q-1.3125 0 -2.203125 0.96875q-0.890625 0.953125 -1.109375 2.671875l6.359375 0l0 -0.171875q-0.09375 -1.640625 -0.890625 -2.546875q-0.796875 -0.921875 -2.15625 -0.921875zm15.105469 7.78125q0 -0.890625 -0.671875 -1.375q-0.65625 -0.484375 -2.3125 -0.828125q-1.640625 -0.359375 -2.609375 -0.84375q-0.96875 -0.5 -1.4375 -1.171875q-0.453125 -0.6875 -0.453125 -1.625q0 -1.5625 1.3125 -2.640625q1.328125 -1.078125 3.375 -1.078125q2.15625 0 3.5 1.125q1.34375 1.109375 1.34375 2.84375l-2.1875 0q0 -0.890625 -0.75 -1.53125q-0.75 -0.65625 -1.90625 -0.65625q-1.1875 0 -1.859375 0.515625q-0.65625 0.515625 -0.65625 1.359375q0 0.78125 0.609375 1.1875q0.625 0.390625 2.25 0.75q1.625 0.359375 2.625 0.875q1.015625 0.5 1.5 1.21875q0.484375 0.703125 0.484375 1.71875q0 1.703125 -1.359375 2.734375q-1.359375 1.015625 -3.515625 1.015625q-1.53125 0 -2.703125 -0.53125q-1.171875 -0.546875 -1.84375 -1.515625q-0.65625 -0.96875 -0.65625 -2.09375l2.171875 0q0.0625 1.09375 0.875 1.734375q0.8125 0.640625 2.15625 0.640625q1.21875 0 1.96875 -0.5q0.75 -0.5 0.75 -1.328125z" fill-rule="nonzero"/><path fill="#000000" fill-opacity="0.0" d="m176.62859 430.10904l52.850388 -276.5039l53.95276 10.29921l-52.850388 276.50394z" fill-rule="evenodd"/><path fill="#ffffff" d="m200.88602 408.65714l1.3887482 0.05831909l-1.1720886 -0.52597046l-6.749542 -3.3881836l0.21707153 -1.1357117l7.515167 -0.61743164l1.2959747 -0.038909912l-1.3402405 -0.47854614l-6.6935425 -2.9320984l0.25813293 -1.3505554l9.76181 4.4404297l-0.23466492 1.2277527l-7.8609467 0.6786804l-0.81500244 0.01940918l0.7534027 0.30288696l7.0395813 3.6185303l-0.23468018 1.2277832l-10.709305 0.51672363l0.2581482 -1.3505554l7.3219757 -0.2725525zm5.9044495 -12.664246q-0.2962799 1.5500793 -1.4940491 2.323578q-1.1977539 0.77349854 -2.9013672 0.44830322l-0.24557495 -0.046875q-1.1203918 -0.2138977 -1.9284363 -0.8135376q-0.8080292 -0.5996399 -1.1678467 -1.4636841q-0.35687256 -0.87939453 -0.18379211 -1.7848816q0.28453064 -1.488678 1.4222717 -2.114563q1.1406708 -0.64123535 2.9517212 -0.29553223l0.5371704 0.10253906l-0.9856262 5.1566467q1.1416016 0.18612671 1.9525299 -0.3112793q0.81092834 -0.4973755 0.99572754 -1.4642639q0.13200378 -0.6906128 -0.05331421 -1.2191162q-0.1977539 -0.54678345 -0.5907135 -0.9876404l0.766449 -0.6808777q1.2885895 1.2481384 0.92485046 3.151184zm-6.8467255 -1.132019q-0.14959717 0.78271484 0.33094788 1.4312134q0.4651947 0.64553833 1.470047 0.9645996l0.727478 -3.8060913l-0.107437134 -0.020507812q-0.99105835 -0.14144897 -1.6221008 0.24710083q-0.64346313 0.3703003 -0.79893494 1.1836853zm1.8008881 -9.505096q-0.8947296 -1.0615845 -0.63072205 -2.4428406q0.46347046 -2.4248657 3.1983337 -1.9187012l5.018753 0.95803833l-0.24934387 1.3045349l-5.0341034 -0.96099854q-0.8287811 -0.15820312 -1.2828827 0.13687134q-0.4694519 0.2921753 -0.6190491 1.0748901q-0.120269775 0.6292114 0.12350464 1.1847839q0.24671936 0.54022217 0.7493744 0.9065857l5.417801 1.0342407l-0.24934387 1.3045044l-10.804901 -2.0625916l0.24934387 -1.3045044l4.1132355 0.78518677zm8.8554535 -10.043182q-0.25074768 0.06347656 -0.8332825 0.031829834q0.7631378 1.084198 0.52259827 2.3426514q-0.21414185 1.1203613 -0.98127747 1.7215576q-0.7824707 0.5982361 -1.7493896 0.41366577q-1.1971283 -0.22851562 -1.6686707 -1.2570496q-0.4868927 -1.0314636 -0.1759491 -2.6582642l0.2434845 -1.2738037l-0.5985718 -0.11428833q-0.69065857 -0.13183594 -1.1688995 0.20635986q-0.47531128 0.32287598 -0.6278534 1.1209106q-0.13200378 0.6906128 0.13006592 1.2337646q0.2467041 0.54022217 0.7531891 0.63690186l-0.24934387 1.3045044q-0.5678711 -0.10839844 -1.0134277 -0.60702515q-0.4579773 -0.51690674 -0.6329193 -1.2661438q-0.19030762 -0.75213623 -0.031906128 -1.5809021q0.25227356 -1.3198547 1.0530396 -1.930542q0.8036957 -0.6260071 1.9606628 -0.4369812l3.4993134 0.66799927q1.0436401 0.19921875 1.7227783 0.058441162l0.107437134 0.020507812l-0.26107788 1.3659058zm-1.4112244 1.9735107q0.11734009 -0.6138916 -0.08401489 -1.2249756q-0.21670532 -0.6140137 -0.6762543 -0.9562683l-1.5501251 -0.29589844l-0.19654846 1.0282593q-0.4546814 2.3788147 0.9419861 2.6454163q0.61390686 0.1171875 1.027832 -0.21737671q0.41685486 -0.34991455 0.53712463 -0.9791565zm0.7062073 -7.856079l-5.48967 -2.988617l0.2552185 -1.3351746l7.090393 4.184967l-0.18774414 0.98220825l-8.140564 1.3093262l0.2552185 -1.3352051l6.217148 -0.8175049zm3.3416443 -7.1627197q-0.2962799 1.5500488 -1.4940491 2.3235474q-1.1977539 0.77352905 -2.9013672 0.44830322l-0.24557495 -0.046875q-1.1203918 -0.21386719 -1.9284363 -0.8135376q-0.8080292 -0.5996399 -1.1678467 -1.4636841q-0.35687256 -0.87939453 -0.18379211 -1.7848511q0.28453064 -1.488678 1.4222717 -2.1145935q1.1406708 -0.64123535 2.9517212 -0.2955017l0.5371704 0.10253906l-0.9856262 5.1566467q1.1416016 0.18609619 1.9525299 -0.3112793q0.8109131 -0.497406 0.99572754 -1.4642639q0.13200378 -0.6906433 -0.053329468 -1.2191162q-0.19773865 -0.54678345 -0.59069824 -0.9876709l0.766449 -0.68084717q1.2885895 1.2481384 0.92485046 3.151184zm-6.8467255 -1.132019q-0.14959717 0.78271484 0.33094788 1.4311829q0.4651947 0.64556885 1.4700317 0.9646301l0.7274933 -3.8060913l-0.107437134 -0.020507812q-0.99105835 -0.14147949 -1.6221008 0.24710083q-0.64346313 0.37026978 -0.79893494 1.1836853zm8.513077 -8.335144l-0.24932861 1.3045044l-10.804901 -2.0625916l0.24934387 -1.3045044l10.804886 2.0625916zm-3.5343323 -2.4822083q-1.1203918 -0.21386719 -1.9284363 -0.8135376q-0.8204498 -0.6179199 -1.1466217 -1.4914551q-0.34153748 -0.87646484 -0.14793396 -1.8893738q0.2962799 -1.5500488 1.5525055 -2.2964783q1.2591553 -0.7618103 3.0548553 -0.41900635l0.09208679 0.017578125q1.1050415 0.2109375 1.9130859 0.8105774q0.7926941 0.5967407 1.1312866 1.4885254q0.34152222 0.87646484 0.14498901 1.9047241q-0.29335022 1.534729 -1.5525055 2.2965088q-1.2562256 0.74642944 -3.021225 0.40951538l-0.09208679 -0.017578125zm0.40281677 -1.2752075q1.2585297 0.24023438 2.1373901 -0.19647217q0.8788605 -0.43670654 1.0666046 -1.4189148q0.19067383 -0.9975586 -0.46525574 -1.7272339q-0.67126465 -0.7326355 -2.0679169 -0.99923706q-1.2585297 -0.24023438 -2.1403198 0.21179199q-0.8942108 0.43377686 -1.081955 1.4160156q-0.1847992 0.9668579 0.46818542 1.7118835q0.6559143 0.7296753 2.0832672 1.0021667zm3.9358215 -11.3532715q-0.53718567 -0.10253906 -0.9050598 0.24081421q-0.36787415 0.34335327 -0.7580719 1.3028259q-0.40260315 0.94122314 -0.8056946 1.46875q-0.41548157 0.5092468 -0.8702698 0.7246704q-0.4671936 0.19714355 -1.0350647 0.08874512q-0.9208679 -0.17581177 -1.4129486 -1.0968933q-0.5074158 -0.92404175 -0.2727356 -2.151825q0.24639893 -1.289154 1.0742493 -1.958313q0.8154297 -0.68740845 1.8590851 -0.4881897l-0.24934387 1.3045349q-0.5371704 -0.10256958 -1.0088654 0.28460693q-0.46878052 0.37182617 -0.6007843 1.062439q-0.13786316 0.7213135 0.092819214 1.1789551q0.23069763 0.45761108 0.73716736 0.5542908q0.46043396 0.087890625 0.77641296 -0.23355103q0.31889343 -0.336792 0.7185669 -1.2626648q0.4026184 -0.9411926 0.8239746 -1.4811401q0.40602112 -0.5428772 0.89149475 -0.7524414q0.48547363 -0.20956421 1.0993805 -0.09234619q1.01297 0.19335938 1.471405 1.1239319q0.45845032 0.930603 0.20910645 2.2351074q-0.17308044 0.90548706 -0.6303253 1.5499268q-0.4572296 0.6444397 -1.1167297 0.9321594q-0.6565552 0.27233887 -1.3318481 0.14343262l0.24639893 -1.2891846q0.6687622 0.079956055 1.1433868 -0.3225708q0.47756958 -0.41784668 0.6301117 -1.2159119q0.1408081 -0.7366638 -0.06573486 -1.2373962q-0.21894836 -0.51901245 -0.710083 -0.61276245zm-6.53537 -6.1733093l1.8417511 0.35159302l0.2728119 -1.4273071l1.0129547 0.19335938l-0.2728119 1.4273071l4.711792 0.8994446q0.46043396 0.087890625 0.7258606 -0.052337646q0.26835632 -0.1555481 0.35635376 -0.6159668q0.04107666 -0.21487427 0.025253296 -0.6314697l1.0590057 0.20214844q0.038391113 0.54818726 -0.05255127 1.0239563q-0.16720581 0.8747864 -0.7740936 1.2202454q-0.6222534 0.34249878 -1.5891571 0.15792847l-4.7118073 -0.8994446l-0.26400757 1.3812561l-1.0129547 -0.1933899l0.26400757 -1.3812256l-1.8417358 -0.35159302l0.24932861 -1.3045044zm1.5800018 -8.266235l1.8417358 0.3515625l0.2728119 -1.4272766l1.0129547 0.19335938l-0.27279663 1.4272766l4.711792 0.8994751q0.46043396 0.087890625 0.72584534 -0.052337646q0.26835632 -0.15557861 0.35636902 -0.6159973q0.0410614 -0.21484375 0.025238037 -0.6314392l1.0590057 0.20214844q0.038391113 0.54815674 -0.05253601 1.0239258q-0.16720581 0.8747864 -0.7741089 1.2202454q-0.62223816 0.3425293 -1.5891571 0.15795898l-4.711792 -0.8994446l-0.26400757 1.3812256l-1.0129547 -0.19335938l0.26400757 -1.3812561l-1.8417511 -0.3515625l0.24934387 -1.3045044zm3.5734406 -3.7147217q-0.8947296 -1.0615845 -0.63072205 -2.4428406q0.46347046 -2.4248352 3.1983337 -1.9187012l5.018753 0.95806885l-0.24934387 1.3045044l-5.0341034 -0.96099854q-0.8287811 -0.15820312 -1.2828827 0.13690186q-0.4694519 0.29214478 -0.6190491 1.0748596q-0.120269775 0.62924194 0.12350464 1.1847839q0.24671936 0.54022217 0.7493744 0.9066162l5.417801 1.0342102l-0.24934387 1.3045044l-10.804901 -2.0625916l0.24934387 -1.3045044l4.1132355 0.78518677zm8.700241 -8.482086q-0.2962799 1.5500488 -1.4940338 2.323578q-1.1977692 0.77349854 -2.9013824 0.4482727l-0.24555969 -0.046875q-1.1204071 -0.21386719 -1.9284363 -0.8135071q-0.80804443 -0.5996704 -1.1678467 -1.4637146q-0.35688782 -0.879364 -0.18380737 -1.7848511q0.2845459 -1.488678 1.4222717 -2.114563q1.1406708 -0.64123535 2.9517212 -0.29553223l0.5371704 0.10253906l-0.9856262 5.1566467q1.1416016 0.18612671 1.9525299 -0.3112793q0.81092834 -0.497406 0.99572754 -1.4642639q0.13200378 -0.6906128 -0.05331421 -1.2191162q-0.19773865 -0.54678345 -0.5907135 -0.9876709l0.766449 -0.68084717q1.2885895 1.2481384 0.92485046 3.151184zm-6.8467255 -1.132019q-0.14959717 0.78271484 0.33094788 1.4311829q0.46520996 0.64556885 1.470047 0.9646301l0.7274933 -3.8060913l-0.107437134 -0.020507812q-0.9910736 -0.14147949 -1.6221161 0.24710083q-0.64346313 0.3703003 -0.79893494 1.1836853zm7.0803986 -11.74234q-0.5371704 -0.10253906 -0.90504456 0.24081421q-0.3678894 0.3433838 -0.7580719 1.3028564q-0.4026184 0.9411926 -0.8056946 1.4687195q-0.41549683 0.5092468 -0.8702698 0.7246704q-0.4671936 0.19714355 -1.0350647 0.08874512q-0.9208832 -0.17578125 -1.4129486 -1.0968933q-0.5074158 -0.92404175 -0.27275085 -2.1517944q0.24641418 -1.2891846 1.0742493 -1.958313q0.8154297 -0.68740845 1.8590851 -0.4881897l-0.24932861 1.3045044q-0.53718567 -0.10253906 -1.0088806 0.28463745q-0.46876526 0.37182617 -0.60076904 1.062439q-0.13787842 0.7213135 0.092819214 1.1789246q0.23068237 0.4576416 0.73716736 0.5543213q0.46043396 0.087890625 0.7763977 -0.23358154q0.3189087 -0.336792 0.71858215 -1.2626343q0.40260315 -0.94122314 0.8239746 -1.4811401q0.40600586 -0.5428772 0.8914795 -0.7524414q0.48547363 -0.20956421 1.0993958 -0.09237671q1.0129547 0.19335938 1.471405 1.1239624q0.45843506 0.930603 0.20909119 2.2351074q-0.17306519 0.90548706 -0.63031006 1.5499268q-0.45724487 0.6444397 -1.1167297 0.9321289q-0.6565552 0.27233887 -1.3318634 0.14343262l0.24641418 -1.289154q0.66874695 0.07992554 1.1433868 -0.3225708q0.47756958 -0.4178772 0.63009644 -1.2159424q0.1408081 -0.7366638 -0.06573486 -1.2373962q-0.21894836 -0.51901245 -0.710083 -0.61276245zm1.153656 -5.4531555l-5.3691254 -2.8701477l0.26400757 -1.3812561l8.195236 4.72995q1.7681885 1.0692444 1.4719238 2.6193237l-0.062286377 0.24261475l-0.18595886 0.47354126l-1.0590057 -0.20214844l0.09815979 -0.34713745q0.12614441 -0.6599121 -0.079711914 -1.0809937q-0.1875763 -0.43347168 -0.84957886 -0.7984619l-0.71165466 -0.43807983l-8.055023 1.2778931l0.2728119 -1.4272766l6.0702057 -0.79782104zm-4.648056 -6.642639l0.97572327 0.13851929q-0.93785095 -1.0857239 -0.67089844 -2.4823303q0.46347046 -2.4248352 3.1983337 -1.9186707l5.018753 0.95803833l-0.24934387 1.3045044l-5.0341034 -0.960968q-0.8287811 -0.15820312 -1.2828827 0.13687134q-0.4694519 0.29214478 -0.6190491 1.0748596q-0.120269775 0.62924194 0.12350464 1.1848145q0.24671936 0.54019165 0.7493744 0.9065857l5.417801 1.0342102l-0.24934387 1.3045044l-7.6125336 -1.453186l0.23466492 -1.2277527zm9.6384735 -8.397095q-0.2962799 1.5500488 -1.4940338 2.3235474q-1.1977692 0.77349854 -2.9013824 0.44830322l-0.24555969 -0.046875q-1.1203918 -0.21386719 -1.9284363 -0.8135376q-0.80804443 -0.5996399 -1.1678467 -1.4636841q-0.35687256 -0.87939453 -0.18380737 -1.7848816q0.2845459 -1.4886475 1.4222717 -2.114563q1.1406708 -0.64123535 2.9517212 -0.2955017l0.5371704 0.10253906l-0.9856262 5.1566467q1.1416168 0.18609619 1.9525299 -0.3112793q0.81092834 -0.497406 0.99572754 -1.4642639q0.13200378 -0.6906433 -0.05331421 -1.2191162q-0.19773865 -0.54678345 -0.5907135 -0.9876709l0.76646423 -0.68084717q1.2885895 1.2481079 0.9248352 3.151184zm-6.84671 -1.132019q-0.14961243 0.7826843 0.33093262 1.4311829q0.46520996 0.64553833 1.470047 0.9646301l0.7274933 -3.8060913l-0.107437134 -0.020507812q-0.99105835 -0.14147949 -1.6221161 0.24710083q-0.6434479 0.37026978 -0.7989197 1.1836853zm1.8199463 -8.273254q-0.10470581 0.29812622 -0.16925049 0.6357727q-0.24346924 1.2738342 0.7582245 1.9422607l5.4024506 1.0312805l-0.24934387 1.3045044l-7.6125336 -1.453186l0.24346924 -1.2738037l0.8931122 0.15457153q-0.9051056 -0.84088135 -0.6821594 -2.0072632q0.07333374 -0.383667 0.21890259 -0.5626831l1.1971283 0.22854614zm2.7212677 -0.25509644q-1.7803497 -0.33984375 -2.6685333 -1.352478q-0.900589 -1.0308838 -0.6395111 -2.3967896q0.26400757 -1.3812561 1.395874 -1.9764404l-0.83239746 -0.22253418l0.22880554 -1.1970825l7.42836 1.4180298q1.4733887 0.28125 2.1503296 1.3171997q0.692276 1.0388489 0.4077301 2.5275269q-0.1554718 0.813385 -0.66101074 1.5440674q-0.50260925 0.7153015 -1.1957245 1.0124817l-0.6383209 -0.8217468q1.1896362 -0.64779663 1.418457 -1.8448792q0.1818695 -0.9515381 -0.25556946 -1.5758667q-0.43450928 -0.6397095 -1.4014282 -0.8242798l-0.64460754 -0.123046875q0.74349976 0.9372864 0.48536682 2.2878418q-0.2552185 1.3352051 -1.4879608 1.9588623q-1.2327576 0.6236572 -3.089859 0.26913452zm0.40283203 -1.2752075q1.2892151 0.24612427 2.1256561 -0.1350708q0.8240051 -0.39944458 1.0058899 -1.3509521q0.23466492 -1.2277832 -0.77719116 -2.0095215l-3.4686127 -0.6621094q-1.2041016 0.39050293 -1.4299774 1.5722351q-0.1818695 0.9515381 0.45214844 1.629303q0.6340332 0.6777954 2.0920868 0.9561157zm3.6393127 -9.219421l-5.3691406 -2.870163l0.26400757 -1.3812408l8.195236 4.7299194q1.7681885 1.0692749 1.4719238 2.6193237l-0.062286377 0.24264526l-0.18595886 0.47351074l-1.0590057 -0.20214844l0.09815979 -0.34710693q0.12614441 -0.6599426 -0.079711914 -1.0810242q-0.1875763 -0.43347168 -0.84957886 -0.7984619l-0.71165466 -0.43807983l-8.055023 1.2779236l0.2728119 -1.4272766l6.070221 -0.79782104zm2.9030457 -14.605652l-5.538162 -2.5683746l0.24932861 -1.3045044l7.19014 3.6631622l-0.20240784 1.05896l-6.1257477 0.7554016l5.427582 2.897232l-0.19946289 1.0436096l-8.034958 0.7568054l0.24639893 -1.2891693l5.981537 -0.41706848l-5.3567047 -2.8518677l0.19946289 -1.0436096l6.1629944 -0.7005768zm2.8454895 -5.1495514l-0.24934387 1.3045044l-7.6125336 -1.4531708l0.24934387 -1.3045197l7.6125336 1.453186zm-9.890045 -0.44039917q-0.3223114 -0.061523438 -0.50198364 -0.2866974q-0.1767273 -0.24053955 -0.10632324 -0.60887146q0.07333374 -0.38368225 0.32633972 -0.5421753q0.25299072 -0.15849304 0.5753021 -0.096969604q0.3223114 0.061523438 0.4990387 0.302063q0.16139221 0.2375946 0.08805847 0.62127686q-0.07040405 0.3683319 -0.3080597 0.52975464q-0.2500763 0.14315796 -0.57237244 0.08161926zm1.1709747 -5.2108307l1.8417358 0.35157776l0.2728119 -1.4272919l1.0129547 0.19337463l-0.2728119 1.4272766l4.7118073 0.89945984q0.46043396 0.087890625 0.72584534 -0.052337646q0.26835632 -0.15556335 0.35635376 -0.61598206q0.04107666 -0.21485901 0.025253296 -0.63145447l1.0590057 0.20214844q0.038391113 0.548172 -0.05255127 1.023941q-0.16720581 0.8747864 -0.7740936 1.2202454q-0.6222534 0.34251404 -1.5891571 0.15794373l-4.711792 -0.8994446l-0.26400757 1.3812408l-1.01297 -0.19337463l0.26400757 -1.3812408l-1.8417358 -0.35157776l0.24934387 -1.3045044zm3.5734253 -3.7146912q-0.8947296 -1.0615997 -0.63072205 -2.4428406q0.46348572 -2.4248505 3.1983337 -1.9187012l5.018753 0.9580536l-0.24934387 1.3045044l-5.0341034 -0.960968q-0.8287811 -0.15821838 -1.2828827 0.13687134q-0.46943665 0.29216003 -0.6190491 1.0748596q-0.120269775 0.62924194 0.1235199 1.1847992q0.24671936 0.54022217 0.7493744 0.90660095l5.4177856 1.0342102l-0.24934387 1.3045197l-10.804886 -2.0625916l0.24934387 -1.3045044l4.11322 0.78518677zm1.2611389 -11.59169l0.97572327 0.13853455q-0.93785095 -1.0857239 -0.67089844 -2.482315q0.46347046 -2.4248505 3.1983337 -1.9187012l5.018753 0.9580536l-0.24934387 1.3045044l-5.0341034 -0.9609833q-0.8287811 -0.15820312 -1.2828827 0.1368866q-0.4694519 0.29216003 -0.6190491 1.0748596q-0.120269775 0.6292267 0.12350464 1.1847992q0.24671936 0.54022217 0.7493744 0.9065857l5.417801 1.0342255l-0.24934387 1.3045044l-7.6125336 -1.4531708l0.23466492 -1.2277832zm9.793686 -9.958176q-0.25074768 0.06347656 -0.8332825 0.031814575q0.7631378 1.084198 0.52259827 2.3426666q-0.21414185 1.1203461 -0.98127747 1.7215424q-0.7824707 0.59825134 -1.7493896 0.41368103q-1.1971283 -0.22853088 -1.6686707 -1.2570648q-0.4868927 -1.0314636 -0.1759491 -2.6582642l0.2434845 -1.2738037l-0.5985718 -0.11427307q-0.69065857 -0.13183594 -1.1688995 0.20635986q-0.47531128 0.32286072 -0.6278534 1.1209106q-0.13200378 0.6906128 0.13006592 1.2337646q0.24671936 0.54022217 0.7531891 0.63690186l-0.24934387 1.3045044q-0.5678711 -0.10839844 -1.0134277 -0.6070404q-0.45796204 -0.51690674 -0.6329193 -1.2661285q-0.19030762 -0.7521515 -0.031906128 -1.5809021q0.25228882 -1.3198547 1.0530396 -1.930542q0.8036957 -0.62602234 1.9606628 -0.4369812l3.4993134 0.66799927q1.0436554 0.19921875 1.7227783 0.058441162l0.107437134 0.020507812l-0.26107788 1.3659058zm-1.4112244 1.9735107q0.11734009 -0.6138916 -0.08401489 -1.2249908q-0.21670532 -0.6140137 -0.676239 -0.95625305l-1.5501404 -0.2959137l-0.1965332 1.0282593q-0.4546814 2.3788147 0.9419708 2.6454315q0.61390686 0.1171875 1.027832 -0.21739197q0.41685486 -0.34991455 0.53712463 -0.97914124zm-7.1066437 -8.677414l1.8417358 0.35157776l0.2728119 -1.4272919l1.0129547 0.19337463l-0.27279663 1.4272919l4.711792 0.8994446q0.46043396 0.087890625 0.72584534 -0.052322388q0.26835632 -0.15556335 0.35635376 -0.61598206q0.04107666 -0.21485901 0.025253296 -0.6314697l1.0590057 0.2021637q0.038391113 0.548172 -0.05253601 1.0239258q-0.16720581 0.8747864 -0.7741089 1.2202454q-0.62223816 0.3425293 -1.5891571 0.15794373l-4.711792 -0.8994446l-0.26400757 1.3812408l-1.01297 -0.19335938l0.26400757 -1.3812561l-1.8417358 -0.3515625l0.24934387 -1.3045197zm10.161346 -5.97258q0.74642944 0.92193604 0.4648285 2.3952637q-0.23175049 1.2124329 -1.0609589 1.7222443q-0.8262634 0.49446106 -2.2105103 0.24612427l-4.9573517 -0.9463196l0.24934387 -1.3045197l4.926651 0.94047546q1.7189636 0.32814026 1.9888458 -1.0838013q0.2845459 -1.488678 -0.7266388 -2.1907349l-5.540573 -1.057663l0.24934387 -1.3045044l7.6125336 1.453186l-0.23760986 1.2431183l-0.75790405 -0.11286926zm-4.370819 -8.009933q-0.10470581 0.29815674 -0.16925049 0.63578796q-0.24346924 1.273819 0.7582245 1.9422455l5.4024506 1.0312958l-0.24934387 1.3045044l-7.6125336 -1.453186l0.24346924 -1.2738037l0.8931122 0.15457153q-0.9051056 -0.84088135 -0.6821747 -2.0072632q0.073349 -0.38368225 0.21891785 -0.5626831l1.1971283 0.22853088zm7.3900146 -2.958847q-0.29626465 1.5500641 -1.4940338 2.3235626q-1.1977692 0.77349854 -2.9013824 0.44830322l-0.24555969 -0.04689026q-1.1203918 -0.21386719 -1.9284363 -0.81352234q-0.80804443 -0.5996399 -1.1678467 -1.4636841q-0.35687256 -0.87939453 -0.18380737 -1.7848816q0.2845459 -1.4886627 1.422287 -2.114563q1.1406555 -0.64123535 2.951706 -0.29551697l0.53718567 0.10253906l-0.9856415 5.1566467q1.1416168 0.18611145 1.9525299 -0.3112793q0.81092834 -0.49739075 0.9957428 -1.4642639q0.13200378 -0.69062805 -0.053329468 -1.2191162q-0.19773865 -0.54678345 -0.59069824 -0.98765564l0.766449 -0.6808624q1.2885895 1.2481232 0.9248352 3.151184zm-6.84671 -1.132019q-0.14961243 0.7826996 0.33094788 1.4311829q0.4651947 0.6455536 1.4700317 0.9646301l0.7274933 -3.8060913l-0.107437134 -0.020507812q-0.99105835 -0.14146423 -1.6221008 0.24710083q-0.64346313 0.37028503 -0.79893494 1.1836853z" fill-rule="nonzero"/><path fill="#ffffff" d="m235.23502 340.174q-0.25076294 0.06347656 -0.8332977 0.031829834q0.7631531 1.084198 0.5226135 2.3426514q-0.21414185 1.1203308 -0.98127747 1.7215271q-0.78248596 0.5982666 -1.7493896 0.4136963q-1.1971436 -0.22851562 -1.6686707 -1.2570496q-0.4868927 -1.0314636 -0.1759491 -2.6582642l0.24346924 -1.2738342l-0.5985565 -0.11425781q-0.69065857 -0.13183594 -1.1688995 0.20635986q-0.47532654 0.32284546 -0.6278534 1.1209106q-0.13200378 0.6906128 0.13005066 1.2337646q0.24671936 0.54022217 0.75320435 0.63690186l-0.24934387 1.3045044q-0.5678711 -0.10839844 -1.0134277 -0.60702515q-0.4579773 -0.51693726 -0.6329346 -1.2661438q-0.19029236 -0.75213623 -0.03189087 -1.5809021q0.25227356 -1.3198547 1.0530396 -1.930542q0.8036957 -0.6260071 1.9606476 -0.4369812l3.4993134 0.66799927q1.0436554 0.19921875 1.7227936 0.058441162l0.107437134 0.020507812l-0.26107788 1.3659058zm-1.4112244 1.9735107q0.11734009 -0.6138916 -0.08401489 -1.2249756q-0.21670532 -0.6140137 -0.6762543 -0.9562683l-1.5501251 -0.29589844l-0.19654846 1.0282593q-0.4546814 2.3788147 0.9419708 2.6454163q0.6139221 0.1171875 1.0278473 -0.21737671q0.41685486 -0.34991455 0.53712463 -0.9791565zm-5.367584 -7.788666l0.97572327 0.13851929q-0.9378357 -1.0857239 -0.67089844 -2.4823303q0.46348572 -2.4248352 3.1983337 -1.9187012l5.018753 0.95806885l-0.24934387 1.3045044l-5.0341034 -0.960968q-0.8287811 -0.15823364 -1.2828827 0.13687134q-0.46943665 0.29214478 -0.6190491 1.0748596q-0.120269775 0.62924194 0.1235199 1.1847839q0.2467041 0.54022217 0.74935913 0.9066162l5.417801 1.0342102l-0.24934387 1.3045044l-7.6125336 -1.453186l0.23466492 -1.2277527zm4.9697266 -5.693329q-1.749649 -0.3340149 -2.6502533 -1.3648987q-0.91593933 -1.033844 -0.6607361 -2.369049q0.2552185 -1.3352051 1.3256836 -1.9421082l-3.9750977 -0.7588196l0.24934387 -1.3045044l10.804901 2.062561l-0.22880554 1.1970825l-0.82518005 -0.09387207q0.80197144 0.96432495 0.5350342 2.3609314q-0.25228882 1.3198547 -1.4850311 1.943512q-1.2481079 0.62072754 -2.9824219 0.28967285l-0.107437134 -0.020507812zm0.39988708 -1.2598572q1.2892303 0.24609375 2.128601 -0.15042114q0.8240051 -0.39944458 1.002945 -1.3356323q0.23760986 -1.2431335 -0.7588959 -2.0219116l-3.4993134 -0.66799927q-1.1858215 0.3781128 -1.4175568 1.5905457q-0.1818695 0.95150757 0.45214844 1.629303q0.6340332 0.6777649 2.0920715 0.9561157zm1.8272095 -10.391846q-1.1204071 -0.2138977 -1.9284363 -0.8135376q-0.8204651 -0.6179199 -1.146637 -1.4914551q-0.34152222 -0.87646484 -0.1479187 -1.8893738q0.2962799 -1.5500488 1.5524902 -2.2964783q1.2591553 -0.7618103 3.0548553 -0.41900635l0.09208679 0.017578125q1.1050568 0.2109375 1.9130859 0.8105774q0.7926941 0.5967407 1.1312866 1.4885254q0.34153748 0.87646484 0.14498901 1.9047241q-0.29333496 1.534729 -1.5524902 2.2965088q-1.2562256 0.74642944 -3.021225 0.40951538l-0.09208679 -0.017578125zm0.40281677 -1.2752075q1.2585144 0.24023438 2.1373901 -0.19647217q0.8788605 -0.43670654 1.0666046 -1.4189148q0.19065857 -0.9975586 -0.46525574 -1.7272644q-0.6712799 -0.732605 -2.0679321 -0.99920654q-1.2585144 -0.2402649 -2.1403198 0.21179199q-0.8942108 0.43377686 -1.081955 1.4159851q-0.1847992 0.9668884 0.46818542 1.7119141q0.65592957 0.7296753 2.0832825 1.0021667zm5.2442017 -11.373932q0.7464447 0.92193604 0.4648285 2.3952637q-0.23173523 1.2124329 -1.0609436 1.722229q-0.8262787 0.49447632 -2.2105103 0.24612427l-4.957367 -0.9463196l0.24934387 -1.3045044l4.9266663 0.9404602q1.7189636 0.32815552 1.9888306 -1.0838013q0.2845459 -1.488678 -0.7266388 -2.1907349l-5.540573 -1.0576477l0.24934387 -1.3045044l7.6125336 1.453186l-0.2375946 1.243103l-0.7579193 -0.112854004zm-4.370819 -8.009949q-0.10470581 0.29815674 -0.16923523 0.6358032q-0.2434845 1.2738037 0.7582092 1.9422302l5.4024506 1.031311l-0.24934387 1.3045044l-7.6125336 -1.453186l0.24346924 -1.2738037l0.8931122 0.15457153q-0.9051056 -0.84088135 -0.6821594 -2.0072632q0.07333374 -0.383667 0.21890259 -0.5626831l1.1971283 0.22851562zm5.5103455 -4.7764587q-0.53718567 -0.10253906 -0.9050598 0.24081421q-0.36787415 0.34335327 -0.7580719 1.3028259q-0.40260315 0.94122314 -0.8056946 1.46875q-0.41548157 0.5092468 -0.8702698 0.7246704q-0.4671936 0.19714355 -1.0350647 0.08874512q-0.9208679 -0.17581177 -1.4129486 -1.0968933q-0.5074158 -0.92404175 -0.2727356 -2.151825q0.24639893 -1.289154 1.0742493 -1.9582825q0.8154297 -0.68743896 1.8590851 -0.4882202l-0.24934387 1.3045349q-0.5371704 -0.10253906 -1.0088806 0.28460693q-0.46876526 0.37182617 -0.60076904 1.0624695q-0.13786316 0.7213135 0.092819214 1.1789246q0.23069763 0.45761108 0.73716736 0.5542908q0.46043396 0.08792114 0.77641296 -0.23355103q0.31889343 -0.336792 0.7185669 -1.2626648q0.4026184 -0.9411926 0.8239746 -1.4811401q0.40602112 -0.5428772 0.89149475 -0.7524414q0.48547363 -0.20953369 1.0993805 -0.09234619q1.01297 0.19335938 1.471405 1.1239624q0.45845032 0.9305725 0.20910645 2.235077q-0.17308044 0.90548706 -0.6303253 1.5499268q-0.4572296 0.6444702 -1.1167297 0.9321594q-0.6565552 0.27233887 -1.3318481 0.14343262l0.24639893 -1.289154q0.6687622 0.07992554 1.1433868 -0.32260132q0.47756958 -0.41784668 0.6301117 -1.2159119q0.1408081 -0.7366638 -0.06573486 -1.2373962q-0.21894836 -0.51901245 -0.710083 -0.61276245zm3.3239899 -5.7387695q-0.2962799 1.5500793 -1.4940338 2.323578q-1.1977692 0.77349854 -2.9013824 0.44830322l-0.24555969 -0.046905518q-1.1204071 -0.21386719 -1.9284363 -0.8135071q-0.80804443 -0.5996399 -1.1678467 -1.4636841q-0.35687256 -0.87939453 -0.18380737 -1.7848816q0.2845459 -1.488678 1.4222717 -2.114563q1.1406708 -0.64123535 2.9517212 -0.29553223l0.5371704 0.10253906l-0.9856262 5.1566467q1.1416016 0.18612671 1.9525299 -0.3112793q0.81092834 -0.4973755 0.99572754 -1.4642639q0.13200378 -0.6906128 -0.05331421 -1.2191162q-0.19773865 -0.54678345 -0.5907135 -0.9876404l0.76646423 -0.6808777q1.2885895 1.2481384 0.9248352 3.151184zm-6.84671 -1.132019q-0.14961243 0.78271484 0.33093262 1.4311829q0.46520996 0.64556885 1.470047 0.9646301l0.7274933 -3.8060913l-0.107437134 -0.020507812q-0.9910736 -0.14144897 -1.6221161 0.24710083q-0.6434479 0.3703003 -0.7989197 1.1836853zm7.831909 -4.771393l-0.24934387 1.3045044l-10.804901 -2.062561l0.24934387 -1.3045044l10.804901 2.062561zm-0.8860626 -4.935364l-5.48967 -2.988617l0.2552185 -1.3352051l7.090393 4.184967l-0.18774414 0.98223877l-8.140564 1.3092957l0.2552185 -1.3352051l6.217148 -0.81747437zm3.3416443 -7.1627502q-0.2962799 1.5500488 -1.4940338 2.3235474q-1.1977692 0.77349854 -2.9013824 0.44830322l-0.24557495 -0.046875q-1.1203918 -0.21386719 -1.928421 -0.8135376q-0.80804443 -0.5996399 -1.1678619 -1.4636841q-0.35687256 -0.87939453 -0.18379211 -1.7848816q0.2845459 -1.4886475 1.4222717 -2.114563q1.1406708 -0.64123535 2.9517212 -0.2955017l0.5371704 0.10253906l-0.9856262 5.1566467q1.1416016 0.18609619 1.9525299 -0.3112793q0.81092834 -0.497406 0.99572754 -1.4642639q0.13200378 -0.6906433 -0.05331421 -1.2191162q-0.19773865 -0.54678345 -0.5907135 -0.9876709l0.766449 -0.68084717q1.2885895 1.2481079 0.92485046 3.151184zm-6.8467255 -1.132019q-0.14959717 0.7826843 0.33094788 1.4311829q0.46520996 0.64553833 1.470047 0.9646301l0.727478 -3.8060913l-0.107421875 -0.020507812q-0.9910736 -0.14147949 -1.6221161 0.24710083q-0.64346313 0.37026978 -0.79893494 1.1836853zm6.399231 -8.178558q-0.5371704 -0.10253906 -0.9050598 0.24081421q-0.36787415 0.34335327 -0.7580719 1.3028259q-0.40260315 0.94122314 -0.8056946 1.46875q-0.41548157 0.5092468 -0.8702698 0.7246704q-0.4671936 0.19714355 -1.0350647 0.0887146q-0.9208679 -0.17578125 -1.4129333 -1.0968933q-0.50743103 -0.92401123 -0.27275085 -2.1517944q0.24639893 -1.289154 1.0742493 -1.958313q0.8154297 -0.68740845 1.8590851 -0.4881897l-0.24934387 1.3045044q-0.5371704 -0.10253906 -1.0088654 0.28463745q-0.46876526 0.37182617 -0.6007843 1.062439q-0.13786316 0.7213135 0.092819214 1.1789551q0.23069763 0.45761108 0.73716736 0.5542908q0.46044922 0.087890625 0.77641296 -0.23355103q0.31889343 -0.336792 0.7185669 -1.2626648q0.4026184 -0.9411926 0.8239746 -1.4811401q0.40602112 -0.5428772 0.89149475 -0.7524414q0.48547363 -0.20956421 1.0993805 -0.09237671q1.01297 0.1933899 1.471405 1.1239624q0.45845032 0.930603 0.20910645 2.2351074q-0.17308044 0.90548706 -0.63031006 1.5499268q-0.45724487 0.6444397 -1.116745 0.9321289q-0.6565399 0.27236938 -1.3318481 0.14346313l0.24639893 -1.2891846q0.6687622 0.079956055 1.1434021 -0.3225708q0.47755432 -0.4178772 0.63009644 -1.2159119q0.1408081 -0.7366638 -0.06573486 -1.2373962q-0.21894836 -0.51901245 -0.710083 -0.61276245zm1.9121399 -2.7632294q-0.33766174 -0.064453125 -0.5297394 -0.30792236q-0.19207764 -0.24345398 -0.11581421 -0.6424866q0.07626343 -0.39901733 0.34461975 -0.55459595q0.271286 -0.1709137 0.60894775 -0.10644531q0.32229614 0.061523438 0.49609375 0.31739807q0.17674255 0.24052429 0.100479126 0.6395569q-0.07627869 0.3990326 -0.32928467 0.55752563q-0.25300598 0.15849304 -0.5753021 0.096969604z" fill-rule="nonzero"/><path fill="#ff4500" d="m729.4196 439.03723l-54.771667 -285.6693l53.95276 -10.330704l54.771667 285.66928z" fill-rule="evenodd"/><path stroke="#ff4500" stroke-width="1.0" stroke-linejoin="round" stroke-linecap="butt" d="m729.4196 439.03723l-54.771667 -285.6693l53.95276 -10.330704l54.771667 285.66928z" fill-rule="evenodd"/><path fill="#ffffff" d="m742.6602 403.1172q1.6619873 -0.12731934 2.7462769 0.7150574q1.0689087 0.8453064 1.3895874 2.5179443q0.34716797 1.810791 -0.7329712 3.1471252q-1.095581 1.339325 -3.2747192 1.7565613l-0.98217773 0.18807983q-1.427185 0.2732544 -2.5985107 -0.027435303q-1.1866455 -0.29779053 -1.9492798 -1.1221924q-0.7626343 -0.8244324 -0.9980469 -2.052063q-0.3118286 -1.6266174 0.42059326 -2.7850342q0.7171631 -1.1554871 2.2807617 -1.6298828l0.25897217 1.3504028q-1.177063 0.41629028 -1.6177368 1.1051941q-0.44067383 0.6889343 -0.2376709 1.7477722q0.24719238 1.2890015 1.3552246 1.8404541q1.0926514 0.55441284 2.857483 0.2164917l0.98217773 -0.18804932q1.6727295 -0.3203125 2.522461 -1.1989136q0.8468628 -0.8939514 0.6085205 -2.1369324q-0.21478271 -1.1202087 -0.8359375 -1.6217346q-0.6241455 -0.5168457 -1.9360962 -0.47244263l-0.25891113 -1.3504028zm-4.211609 -4.7063904q0.012817383 0.31573486 0.07757568 0.6533203q0.24420166 1.2736816 1.4220581 1.5254211l5.4018555 -1.0343323l0.25006104 1.3043518l-7.6116943 1.457489l-0.24420166 -1.2736816l0.887146 -0.18579102q-1.1517944 -0.44763184 -1.3753662 -1.6138916q-0.0736084 -0.38363647 -0.0043945312 -0.60369873l1.1969604 -0.22918701zm5.7753296 -5.4758606q0.29718018 1.5498962 -0.53027344 2.7106018q-0.82751465 1.1607056 -2.5309448 1.4868469l-0.24554443 0.047027588q-1.1203003 0.21450806 -2.0927124 -0.04473877q-0.97247314 -0.25924683 -1.6260376 -0.9295349q-0.6564331 -0.68566895 -0.8300781 -1.5910339q-0.28533936 -1.4885254 0.5408325 -2.4898987q0.8233032 -1.0167236 2.6341553 -1.3634644l0.5371094 -0.10284424l0.9885864 5.1560974q1.1297607 -0.24813843 1.699707 -1.0095215q0.5699463 -0.7614136 0.38458252 -1.7281799q-0.13238525 -0.69055176 -0.49987793 -1.1133728q-0.38568115 -0.43521118 -0.9137573 -0.7000122l0.46087646 -0.9154968q1.6585693 0.68466187 2.0233765 2.5875244zm-6.781311 1.4734497q0.15002441 0.7826233 0.83618164 1.2080688q0.67077637 0.42837524 1.7225342 0.35424805l-0.7296753 -3.805664l-0.107421875 0.020568848q-0.97332764 0.23410034 -1.4163208 0.8279724q-0.46124268 0.58151245 -0.30529785 1.3948059zm4.886902 -10.60733q-0.20959473 0.15148926 -0.7626953 0.33694458q1.1097412 0.72613525 1.3509521 1.9844666q0.21478271 1.1202393 -0.27612305 1.9619446q-0.5062256 0.8446655 -1.4730835 1.0297852q-1.1969604 0.22918701 -2.0151367 -0.5527954q-0.83343506 -0.7790222 -1.1453247 -2.4056396l-0.24420166 -1.2736816l-0.59851074 0.114593506q-0.69055176 0.13223267 -1.0101318 0.62298584q-0.32250977 0.4753723 -0.16949463 1.273346q0.13238525 0.69052124 0.5765381 1.0986633q0.428833 0.41107178 0.9352417 0.3140869l0.25012207 1.3043823q-0.56781006 0.10870361 -1.1660767 -0.19036865q-0.61657715 -0.3114624 -1.0559082 -0.9432678q-0.45465088 -0.6288147 -0.6135254 -1.457489q-0.25305176 -1.3197021 0.265625 -2.1826477q0.5157471 -0.8782654 1.6608276 -1.129364l3.4989014 -0.6699524q1.0435791 -0.1998291 1.6227417 -0.58117676l0.107421875 -0.020568848l0.26184082 1.3657532zm-0.5826416 2.3547058q-0.11767578 -0.61380005 -0.5305176 -1.1074829q-0.42822266 -0.49072266 -0.98168945 -0.6392822l-1.5499878 0.29678345l0.19714355 1.0281372q0.4560547 2.3785706 1.8525391 2.1111755q0.61383057 -0.11755371 0.87493896 -0.58117676q0.2581787 -0.4789734 0.13757324 -1.1081543zm-9.809814 -5.443207l1.8415527 -0.35263062l-0.27368164 -1.427124l1.0128784 -0.19393921l0.2736206 1.427124l4.7113037 -0.9020996q0.46038818 -0.088134766 0.65527344 -0.31637573q0.19195557 -0.24356079 0.103637695 -0.70391846q-0.041137695 -0.21484375 -0.2097168 -0.5961914l1.0588989 -0.20275879q0.23809814 0.4953003 0.3293457 0.9710083q0.16766357 0.8746948 -0.2687378 1.4196167q-0.45184326 0.5478821 -1.4186401 0.7330017l-4.7112427 0.9020996l0.2647705 1.3811035l-1.0128784 0.19390869l-0.2647705 -1.381073l-1.8415527 0.3526001l-0.25006104 -1.3043518zm8.422119 -7.9349365q0.29718018 1.5498962 -0.5303345 2.7106018q-0.82751465 1.1607056 -2.5309448 1.4868469l-0.24554443 0.047027588q-1.1202393 0.21450806 -2.0927124 -0.04473877q-0.97247314 -0.25924683 -1.6259766 -0.9295349q-0.65649414 -0.68566895 -0.8300781 -1.5910645q-0.2854004 -1.4884949 0.5408325 -2.4898682q0.8232422 -1.0167236 2.6340942 -1.3634644l0.5371704 -0.10284424l0.9885254 5.1560974q1.1297607 -0.24813843 1.699707 -1.0095215q0.5699463 -0.7614136 0.38458252 -1.7281799q-0.13238525 -0.69055176 -0.4998169 -1.1133728q-0.3857422 -0.43521118 -0.91381836 -0.7000122l0.46087646 -0.9154968q1.6585693 0.68466187 2.0234375 2.5875244zm-6.781372 1.4734497q0.15008545 0.7826233 0.83618164 1.2080688q0.67077637 0.42837524 1.7225342 0.35424805l-0.7296753 -3.805664l-0.107421875 0.020568848q-0.97332764 0.23406982 -1.4163208 0.8279724q-0.46124268 0.58151245 -0.30529785 1.3948059zm-2.0474854 -11.923737q0.012817383 0.31570435 0.07751465 0.6533203q0.24420166 1.2736816 1.4220581 1.5253906l5.4018555 -1.0343323l0.25012207 1.3043823l-7.6117554 1.4574585l-0.24420166 -1.2736816l0.887146 -0.1857605q-1.1517944 -0.44763184 -1.3753662 -1.6138916q-0.07354736 -0.38363647 -0.0043945312 -0.60369873l1.1970215 -0.22918701zm2.4421387 -1.203125q-1.1203003 0.21450806 -2.0927734 -0.04473877q-0.99072266 -0.27166748 -1.6165161 -0.9631958q-0.6411133 -0.6885681 -0.83532715 -1.7013855q-0.29718018 -1.5498962 0.5946655 -2.7070007q0.888855 -1.1724548 2.6843872 -1.5162659l0.09210205 -0.017608643q1.1049194 -0.21157837 2.0773315 0.047668457q0.9571533 0.2621765 1.6011963 0.9661255q0.6411743 0.6885681 0.83825684 1.7167358q0.2942505 1.5345459 -0.5946045 2.7070007q-0.8918457 1.1571045 -2.6566772 1.4950256l-0.092041016 0.01763916zm-0.09661865 -1.3337708q1.2583618 -0.24093628 1.9138794 -0.9709778q0.6555176 -0.730072 0.46722412 -1.7121887q-0.19128418 -0.9974365 -1.0703735 -1.4336548q-0.8944702 -0.43325806 -2.2909546 -0.16586304q-1.2584229 0.24093628 -1.9109497 0.98635864q-0.67089844 0.7329712 -0.48260498 1.7150879q0.18536377 0.96676636 1.0674438 1.4183044q0.87908936 0.43621826 2.3063354 0.16293335zm-2.6243286 -13.687439q1.7341309 -0.33206177 2.9489136 0.27850342q1.2119141 0.59521484 1.4708252 1.9456177q0.2765503 1.4424744 -0.5862427 2.4190369l0.88653564 -0.10610962l0.22949219 1.1969604l-10.803772 2.0686646l-0.25006104 -1.3043823l4.036072 -0.77279663q-1.1322632 -0.594574 -1.3970337 -1.9756775q-0.26776123 -1.3964233 0.6411133 -2.3818054q0.8905029 -0.9977722 2.701355 -1.3445129l0.122802734 -0.023498535zm0.09661865 1.3337402q-1.3197632 0.25271606 -1.940979 0.91256714q-0.63952637 0.6474304 -0.45422363 1.6141968q0.24719238 1.289032 1.5501099 1.6122742l3.2840576 -0.6288147q1.0822754 -0.82769775 0.8410034 -2.086029q-0.17944336 -0.9360657 -1.0007935 -1.3197021q-0.82128906 -0.38363647 -2.2791748 -0.10449219zm-0.49798584 -2.597229q-1.1202393 0.21450806 -2.0927124 -0.04473877q-0.9907837 -0.27166748 -1.6165161 -0.9631958q-0.6411743 -0.6885681 -0.83532715 -1.7013855q-0.29718018 -1.5498962 0.5946655 -2.7070007q0.888855 -1.1724548 2.6843262 -1.5162659l0.09210205 -0.017608643q1.1049194 -0.21157837 2.0773926 0.047668457q0.9570923 0.2621765 1.6011963 0.9661255q0.6411133 0.6885681 0.83825684 1.7167358q0.29418945 1.5345459 -0.5946655 2.7070007q-0.89178467 1.1571045 -2.6566162 1.4950256l-0.09210205 0.01763916zm-0.09661865 -1.3337708q1.2584229 -0.24093628 1.9138794 -0.9709778q0.6555176 -0.730072 0.46722412 -1.7121887q-0.19122314 -0.9974365 -1.0703735 -1.4336548q-0.8944092 -0.43325806 -2.2909546 -0.16586304q-1.2583618 0.2409668 -1.9109497 0.98635864q-0.6708374 0.7329712 -0.48254395 1.7150879q0.18536377 0.96676636 1.0674438 1.418335q0.87908936 0.43618774 2.3062744 0.16290283zm-7.4664307 -7.908081l1.8415527 -0.35263062l-0.2736206 -1.427124l1.0128784 -0.19393921l0.2736206 1.427124l4.7112427 -0.9020996q0.46038818 -0.088134766 0.65527344 -0.31637573q0.19195557 -0.24356079 0.10369873 -0.70391846q-0.04119873 -0.21484375 -0.20977783 -0.5961914l1.0588989 -0.20275879q0.23815918 0.4953003 0.3293457 0.9710083q0.16772461 0.8746948 -0.2687378 1.4196167q-0.45178223 0.5478821 -1.4185791 0.7330017l-4.7113037 0.9020996l0.26483154 1.381073l-1.0128784 0.19393921l-0.2647705 -1.381073l-1.8415527 0.3526001l-0.25012207 -1.3043518zm6.02948 -8.797241q-0.5371094 0.10284424 -0.75219727 0.5576477q-0.21508789 0.45483398 -0.22332764 1.4904785q-0.026550293 1.0232544 -0.20635986 1.6622009q-0.19805908 0.6265564 -0.5411377 0.99453735q-0.36138916 0.3555603 -0.9291992 0.46426392q-0.92077637 0.17630005 -1.7183228 -0.49822998q-0.8128662 -0.67163086 -1.0482178 -1.8992615q-0.24719238 -1.289032 0.27508545 -2.216278q0.50390625 -0.93966675 1.5474854 -1.1394653l0.25006104 1.3043518q-0.5371094 0.10284424 -0.83251953 0.63668823q-0.2982788 0.51846313 -0.16589355 1.2090149q0.13830566 0.7212219 0.5216675 1.0614624q0.38342285 0.34020996 0.8898926 0.2432251q0.46038818 -0.088134766 0.63531494 -0.5034485q0.17193604 -0.43066406 0.20147705 -1.4385681q0.026550293 -1.0232544 0.21868896 -1.680481q0.17681885 -0.6542969 0.5506592 -1.0281372q0.3737793 -0.37384033 0.98760986 -0.49139404q1.0128784 -0.19393921 1.7826538 0.50183105q0.7697754 0.69577026 1.0198364 2.0001526q0.17364502 0.905365 -0.013305664 1.6729736q-0.18695068 0.76760864 -0.6936035 1.2782593q-0.5095825 0.4953003 -1.1848145 0.62457275l-0.24713135 -1.2890015q0.651062 -0.1723938 0.94348145 -0.72158813q0.28948975 -0.56451416 0.13653564 -1.3624573q-0.14123535 -0.7366028 -0.51812744 -1.1257935q-0.39520264 -0.4015808 -0.8862915 -0.30755615zm0.48376465 -8.3471985l0.25006104 1.3043823l-7.6116943 1.4574585l-0.25012207 -1.3043518l7.6117554 -1.457489zm-9.35437 3.238861q-0.32226562 0.061706543 -0.5723877 -0.08129883q-0.2531128 -0.15835571 -0.32373047 -0.52664185q-0.07354736 -0.38363647 0.103027344 -0.6242676q0.17663574 -0.2406311 0.49890137 -0.30233765q0.32226562 -0.061706543 0.5753174 0.09664917q0.23779297 0.1612854 0.31134033 0.5449219q0.070617676 0.36828613 -0.09063721 0.60598755q-0.17956543 0.22528076 -0.50183105 0.2869873zm1.1082153 -5.090332l0.9579468 -0.23117065q-1.272644 -0.66311646 -1.5403442 -2.0595398q-0.4649048 -2.424591 2.263794 -2.9629822l5.0182495 -0.96087646l0.25006104 1.3043518l-5.0335693 0.96383667q-0.8286743 0.15866089 -1.1417236 0.60040283q-0.32836914 0.44470215 -0.17834473 1.2273254q0.12060547 0.6291504 0.5524292 1.0555725q0.42877197 0.41107178 1.03125 0.5661621l5.4172363 -1.037262l0.25012207 1.3043518l-7.6117554 1.4574585l-0.23535156 -1.2276306zm3.463684 -12.221771q-0.5371094 0.10284424 -0.75219727 0.5576477q-0.21508789 0.45480347 -0.22332764 1.4904785q-0.026550293 1.0232544 -0.20629883 1.6622009q-0.19805908 0.6265564 -0.54119873 0.99450684q-0.36138916 0.3555603 -0.9291992 0.46429443q-0.92077637 0.17630005 -1.7183228 -0.4982605q-0.8128662 -0.67160034 -1.0482178 -1.899231q-0.24713135 -1.289032 0.27508545 -2.216278q0.5039673 -0.93966675 1.5474854 -1.1394958l0.25006104 1.3043823q-0.5371094 0.10284424 -0.8324585 0.6366577q-0.29833984 0.51849365 -0.16595459 1.2090454q0.13830566 0.7212219 0.5217285 1.0614319q0.38342285 0.34020996 0.88983154 0.24325562q0.46038818 -0.08816528 0.63531494 -0.5034485q0.17199707 -0.43066406 0.20147705 -1.4385681q0.026550293 -1.0232544 0.21868896 -1.680481q0.17687988 -0.6543274 0.5506592 -1.0281677q0.3737793 -0.37384033 0.98760986 -0.49136353q1.0128784 -0.19393921 1.7826538 0.50183105q0.7697754 0.69577026 1.0198975 2.0001526q0.17358398 0.905365 -0.013366699 1.6729736q-0.18695068 0.76760864 -0.6936035 1.2782288q-0.5095825 0.4953003 -1.1848145 0.6246033l-0.24713135 -1.289032q0.651062 -0.1723938 0.94348145 -0.7215576q0.28948975 -0.56451416 0.13653564 -1.3624878q-0.14123535 -0.73657227 -0.51812744 -1.1257629q-0.39520264 -0.4015808 -0.8862915 -0.30755615zm-8.354004 -3.3266907l1.8415527 -0.3526001l-0.2736206 -1.4271545l1.0128784 -0.19390869l0.2736206 1.427124l4.7113037 -0.9020996q0.46038818 -0.08816528 0.65527344 -0.31637573q0.19189453 -0.24359131 0.103637695 -0.703949q-0.04119873 -0.21484375 -0.20977783 -0.5961914l1.0588989 -0.20275879q0.23815918 0.4953003 0.3293457 0.9710083q0.16772461 0.8746948 -0.2687378 1.4196472q-0.45178223 0.54785156 -1.4185791 0.7329712l-4.7113037 0.9020996l0.26483154 1.3811035l-1.0128784 0.19393921l-0.2647705 -1.3811035l-1.8415527 0.35263062l-0.25012207 -1.3043823zm8.42218 -7.9349365q0.29711914 1.5498962 -0.5303345 2.7106018q-0.82751465 1.1607056 -2.5309448 1.4868774l-0.24554443 0.04699707q-1.1202393 0.21450806 -2.0927124 -0.04473877q-0.97247314 -0.25924683 -1.6260376 -0.9295349q-0.6564331 -0.68566895 -0.8300171 -1.5910339q-0.2854004 -1.4885254 0.5408325 -2.4898987q0.8232422 -1.0166931 2.6340942 -1.3634338l0.5371094 -0.10284424l0.9885864 5.156067q1.1297607 -0.24813843 1.699707 -1.0095215q0.5699463 -0.76138306 0.38458252 -1.7281494q-0.13238525 -0.69055176 -0.4998169 -1.1133728q-0.3857422 -0.4352417 -0.91381836 -0.7000122l0.46087646 -0.91552734q1.6585693 0.6846924 2.0234375 2.5875244zm-6.781372 1.4734802q0.15002441 0.7826233 0.83618164 1.2080383q0.67077637 0.42837524 1.7225342 0.35424805l-0.7296753 -3.805664l-0.107421875 0.020568848q-0.97332764 0.23410034 -1.4163208 0.8280029q-0.46124268 0.58148193 -0.30529785 1.3948059zm4.886902 -10.60733q-0.20959473 0.15148926 -0.7626953 0.33694458q1.1097412 0.72613525 1.3509521 1.9844666q0.21478271 1.1202087 -0.27612305 1.9619141q-0.5062256 0.8446655 -1.4730225 1.0297852q-1.1970215 0.22918701 -2.0151367 -0.5527649q-0.8334961 -0.77905273 -1.1453857 -2.4056702l-0.24420166 -1.2736511l-0.59851074 0.114593506q-0.69055176 0.13223267 -1.0101318 0.6229553q-0.32250977 0.4753723 -0.16949463 1.273346q0.13238525 0.69055176 0.5765381 1.0986633q0.428833 0.41107178 0.93530273 0.3140869l0.25006104 1.3043823q-0.56781006 0.10873413 -1.1660767 -0.19036865q-0.61657715 -0.3114624 -1.0559082 -0.9432373q-0.45465088 -0.6288452 -0.6135254 -1.4575195q-0.25305176 -1.3197021 0.265625 -2.1826477q0.5157471 -0.8782654 1.6608276 -1.1293335l3.4989014 -0.6699829q1.0435791 -0.19979858 1.6227417 -0.58114624l0.107421875 -0.020568848l0.26184082 1.3657532zm-0.5826416 2.3547058q-0.11767578 -0.61383057 -0.5305176 -1.1074829q-0.42822266 -0.49075317 -0.98168945 -0.63931274l-1.5499878 0.29678345l0.19714355 1.0281677q0.4560547 2.37854 1.8525391 2.111145q0.61383057 -0.11755371 0.87493896 -0.58117676q0.2581787 -0.4789734 0.13757324 -1.1081238zm-3.8265991 -4.4411926q-1.7494507 0.33499146 -2.9672241 -0.29092407q-1.2331543 -0.6229553 -1.4890747 -1.9580078q-0.25598145 -1.3350525 0.5147095 -2.2940063l-3.9746704 0.7610779l-0.25006104 -1.3043823l10.803711 -2.0686646l0.22949219 1.1969604l-0.8015747 0.21710205q1.1015015 0.60046387 1.3692627 1.9968872q0.25305176 1.3197021 -0.6623535 2.354065q-0.93066406 1.0372925 -2.664795 1.3693237l-0.107421875 0.020568848zm-0.093688965 -1.3183899q1.2890625 -0.24685669 1.9227295 -0.9249878q0.61828613 -0.6752014 0.43878174 -1.6112671q-0.23828125 -1.242981 -1.4520874 -1.5992126l-3.4989014 0.6699829q-0.9624634 0.78881836 -0.7300415 2.0010986q0.18243408 0.95144653 1.0220337 1.3474731q0.8395996 0.39605713 2.2974854 0.11691284zm-2.1400757 -10.332031q-1.1202393 0.21450806 -2.0927124 -0.04473877q-0.9907837 -0.27166748 -1.6165771 -0.9631958q-0.6411133 -0.6885681 -0.8352661 -1.7013855q-0.29718018 -1.5498962 0.5946045 -2.7070007q0.888916 -1.1724548 2.6843872 -1.5162659l0.09210205 -0.017608643q1.1049194 -0.21157837 2.0773926 0.047668457q0.9570923 0.2621765 1.6011963 0.9661255q0.6411133 0.6885681 0.83825684 1.7167358q0.29418945 1.5345459 -0.5946655 2.7070007q-0.8918457 1.1571045 -2.6566162 1.4950256l-0.09210205 0.01763916zm-0.09661865 -1.3337708q1.2583618 -0.24093628 1.9138794 -0.9709778q0.6555176 -0.730072 0.46722412 -1.7121887q-0.19122314 -0.9974365 -1.0703735 -1.4336548q-0.8944702 -0.43325806 -2.2909546 -0.16586304q-1.2583618 0.24093628 -1.9109497 0.98635864q-0.6708374 0.7329712 -0.48254395 1.7150879q0.18536377 0.96676636 1.0673828 1.4183044q0.8791504 0.43621826 2.3063354 0.16293335zm2.2015991 -8.597961l-6.598816 1.2635498l0.23242188 1.2122803l-1.0128784 0.19393921l-0.23242188 -1.2122803l-0.767334 0.14691162q-1.2276611 0.2350769 -2.0111084 -0.28308105q-0.8017578 -0.5305786 -1.03125 -1.7275085q-0.08532715 -0.44503784 -0.047912598 -0.9135437l1.0582886 -0.12310791q3.6621094E-4 0.3340149 0.07098389 0.702301q0.12359619 0.64453125 0.5566406 0.9115906q0.43304443 0.26708984 1.1235962 0.13485718l0.79803467 -0.15280151l-0.30895996 -1.6112671l1.0128784 -0.19393921l0.30889893 1.6112671l6.598877 -1.2635193l0.25006104 1.3043518zm-2.4180298 -12.61174q-0.20959473 0.15148926 -0.7626953 0.33694458q1.1096802 0.72613525 1.3509521 1.9844666q0.21478271 1.120224 -0.27612305 1.9619446q-0.5062256 0.84465027 -1.4730835 1.0297699q-1.1969604 0.22920227 -2.0151367 -0.5527649q-0.83343506 -0.7790375 -1.1453247 -2.405655l-0.24420166 -1.2736816l-0.59851074 0.114608765q-0.69055176 0.1322174 -1.0101318 0.6229553q-0.32250977 0.4753723 -0.16949463 1.273346q0.13238525 0.69055176 0.5765381 1.0986633q0.428833 0.41107178 0.9352417 0.31410217l0.25012207 1.3043671q-0.56781006 0.10871887 -1.1660767 -0.1903534q-0.61657715 -0.31147766 -1.0559082 -0.9432678q-0.45465088 -0.62882996 -0.6135254 -1.457489q-0.25305176 -1.3197174 0.265625 -2.1826477q0.51568604 -0.87828064 1.6607666 -1.129364l3.4989624 -0.6699524q1.0435181 -0.19981384 1.6227417 -0.58117676l0.107421875 -0.020568848l0.26184082 1.3657532zm-0.5826416 2.354721q-0.11767578 -0.61383057 -0.5305176 -1.1074982q-0.42822266 -0.49072266 -0.98168945 -0.6392822l-1.5499878 0.29678345l0.19714355 1.0281372q0.45599365 2.3785553 1.8525391 2.1111603q0.61383057 -0.11753845 0.87493896 -0.5811615q0.2581787 -0.4789734 0.13757324 -1.108139zm-1.6704712 -10.040329q1.0342407 0.58151245 1.3166504 2.0546722q0.23248291 1.2122955 -0.34991455 1.9919739q-0.5852661 0.764328 -1.963501 1.0441437l-4.956848 0.94911194l-0.25006104 -1.3043671l4.9261475 -0.9432373q1.71875 -0.32910156 1.4480591 -1.7408905q-0.2854004 -1.4885101 -1.484436 -1.7680054l-5.539978 1.0607758l-0.25012207 -1.3043671l7.6117554 -1.4574585l0.23828125 1.242981l-0.7460327 0.17466736zm-9.660767 -3.3379211l1.8415527 -0.35261536l-0.2736206 -1.427124l1.0128784 -0.19393921l0.2736206 1.427124l4.7112427 -0.9020996q0.46038818 -0.088150024 0.65527344 -0.31637573q0.19195557 -0.24356079 0.10369873 -0.7039337q-0.04119873 -0.21482849 -0.20977783 -0.5961914l1.0588989 -0.20274353q0.23815918 0.4953003 0.3293457 0.9710083q0.16772461 0.8746948 -0.2687378 1.4196167q-0.45178223 0.5478668 -1.4185791 0.73298645l-4.7113037 0.9020996l0.2647705 1.3811035l-1.0128174 0.19393921l-0.26483154 -1.3811035l-1.8414917 0.35261536l-0.25012207 -1.3043671zm5.114563 -3.5285492q-1.1202393 0.2144928 -2.0927124 -0.04473877q-0.9907837 -0.27165222 -1.6165771 -0.96318054q-0.6411133 -0.68859863 -0.8352661 -1.7014008q-0.29718018 -1.5498962 0.5946045 -2.7070007q0.888916 -1.1724548 2.6843872 -1.5162506l0.09210205 -0.01763916q1.1049194 -0.21156311 2.0773926 0.047683716q0.9570923 0.2621765 1.6011963 0.9661102q0.6411133 0.68859863 0.83825684 1.7167358q0.29418945 1.5345612 -0.5946655 2.707016q-0.8918457 1.1571045 -2.6566162 1.4950256l-0.09210205 0.01763916zm-0.09661865 -1.3337555q1.2583618 -0.24095154 1.9138794 -0.9710083q0.6555176 -0.7300415 0.46722412 -1.7121582q-0.19122314 -0.9974518 -1.0703735 -1.43367q-0.8944702 -0.43325806 -2.2909546 -0.16586304q-1.2583618 0.24095154 -1.9109497 0.9863434q-0.6708374 0.7330017 -0.48254395 1.7151031q0.18536377 0.96676636 1.0673828 1.4183197q0.8791504 0.436203 2.3063354 0.16293335zm-5.5219116 -7.723633l0.9580078 -0.2311554q-1.272644 -0.66311646 -1.5404053 -2.059555q-0.46484375 -2.424591 2.263855 -2.9629822l5.0181885 -0.96087646l0.25012207 1.3043671l-5.0335693 0.96380615q-0.82873535 0.15867615 -1.1417236 0.60043335q-0.32843018 0.4446869 -0.17834473 1.2273102q0.12060547 0.62916565 0.55236816 1.0555725q0.428833 0.41107178 1.031311 0.5661621l5.4172363 -1.0372772l0.25006104 1.3043671l-7.6116943 1.4574738l-0.2354126 -1.2276459zm2.5218506 -7.0937805q-1.1202393 0.21450806 -2.0927124 -0.04473877q-0.9907837 -0.27165222 -1.6165771 -0.96318054q-0.6411133 -0.6885834 -0.8352661 -1.7013855q-0.29718018 -1.5498962 0.5946045 -2.7070007q0.888916 -1.1724548 2.6843872 -1.5162659l0.09210205 -0.017623901q1.1049194 -0.21156311 2.0773926 0.047668457q0.9570923 0.26219177 1.6011963 0.9661255q0.6411133 0.6885834 0.83825684 1.7167358q0.29418945 1.5345459 -0.5946655 2.7070007q-0.8918457 1.1571198 -2.6566162 1.4950409l-0.09210205 0.017623901zm-0.09661865 -1.3337402q1.2584229 -0.24095154 1.9138794 -0.9710083q0.6555176 -0.73005676 0.46722412 -1.7121582q-0.19122314 -0.99746704 -1.0703735 -1.43367q-0.8944702 -0.43327332 -2.2909546 -0.16586304q-1.2583618 0.24095154 -1.9109497 0.9863434q-0.6708374 0.73298645 -0.48254395 1.7151031q0.18536377 0.96676636 1.0673828 1.4183197q0.8791504 0.436203 2.3063354 0.16293335zm-5.5219116 -7.723633l0.8381958 -0.19230652q-1.1439819 -0.6559448 -1.4146729 -2.0677185q-0.30596924 -1.595932 0.8098755 -2.4141388q-0.6230469 -0.2625122 -1.0783691 -0.8116913q-0.45532227 -0.5491638 -0.6141968 -1.3778229q-0.47955322 -2.5013123 2.1694336 -3.0403595l5.0949707 -0.9755554l0.24713135 1.2890167l-5.0181885 0.96087646q-0.8133545 0.1557312 -1.138794 0.61576843q-0.34375 0.44763184 -0.17602539 1.3223267q0.13824463 0.7212372 0.6774292 1.1270752q0.52093506 0.39343262 1.256897 0.3320465l5.048889 -0.96673584l0.25012207 1.3043671l-4.987549 0.9549866q-1.6573486 0.3173523 -1.34552 1.9439697q0.24420166 1.2736816 1.4249878 1.5407562l5.555359 -1.0637054l0.24713135 1.2890167l-7.6116943 1.4574738l-0.2354126 -1.2276459zm1.6257324 -11.767639q-1.1202393 0.21450806 -2.0927124 -0.04473877q-0.9907837 -0.27165222 -1.6165771 -0.96318054q-0.6411133 -0.6885834 -0.8352661 -1.7013855q-0.29718018 -1.5498962 0.5946045 -2.7070007q0.888916 -1.1724548 2.6843872 -1.5162659l0.09210205 -0.017623901q1.1049194 -0.21156311 2.0773926 0.047668457q0.9570923 0.26219177 1.6011963 0.9661255q0.6411133 0.6885834 0.83825684 1.7167358q0.29418945 1.5345459 -0.5946655 2.7070007q-0.8918457 1.1571198 -2.6566162 1.4950409l-0.09210205 0.017623901zm-0.09661865 -1.3337402q1.2583618 -0.2409668 1.9138794 -0.9710083q0.6555176 -0.73005676 0.46722412 -1.7121582q-0.19122314 -0.99746704 -1.0703735 -1.43367q-0.8944702 -0.43327332 -2.2909546 -0.16586304q-1.2583618 0.24095154 -1.9109497 0.9863434q-0.6708374 0.73298645 -0.48254395 1.7151031q0.18536377 0.96676636 1.0673828 1.4183197q0.8791504 0.436203 2.3063354 0.16293335zm0.6729126 -12.505203q1.0342407 0.5814972 1.3167114 2.0546722q0.23242188 1.2122955 -0.34991455 1.9919739q-0.58532715 0.764328 -1.963501 1.0441437l-4.956848 0.94911194l-0.25006104 -1.3043671l4.9260864 -0.9432373q1.718811 -0.32911682 1.4481201 -1.7408905q-0.2854004 -1.4885101 -1.4844971 -1.7680054l-5.539978 1.0607758l-0.25006104 -1.3043671l7.6116943 -1.4574585l0.23834229 1.242981l-0.74609375 0.17466736zm-2.7297363 -7.4331665q-0.5371094 0.10284424 -0.75219727 0.55766296q-0.21508789 0.45480347 -0.22332764 1.4904633q-0.026550293 1.0232544 -0.20635986 1.6622162q-0.19805908 0.62654114 -0.5411377 0.99450684q-0.36138916 0.3555603 -0.9291992 0.46427917q-0.92077637 0.17631531 -1.7183228 -0.49824524q-0.8128662 -0.67160034 -1.0482788 -1.8992462q-0.24713135 -1.2890167 0.27514648 -2.216278q0.50390625 -0.93966675 1.5474854 -1.1394806l0.25006104 1.3043671q-0.5371094 0.10284424 -0.83251953 0.636673q-0.2982788 0.5184784 -0.16589355 1.2090302q0.13824463 0.7212372 0.5216675 1.0614471q0.38342285 0.34020996 0.8898926 0.24324036q0.46038818 -0.088150024 0.63531494 -0.5034485q0.17193604 -0.43066406 0.20147705 -1.4385681q0.026489258 -1.0232391 0.21868896 -1.680481q0.17681885 -0.65431213 0.5506592 -1.0281525q0.3737793 -0.37384033 0.98760986 -0.49137878q1.0128784 -0.19393921 1.7826538 0.50183105q0.7697754 0.6957855 1.0198364 2.0001526q0.17358398 0.90538025 -0.013305664 1.6729736q-0.18695068 0.76760864 -0.6936035 1.278244q-0.5095825 0.4953003 -1.1848145 0.624588l-0.24719238 -1.2890167q0.651062 -0.1723938 0.9435425 -0.7215576q0.28948975 -0.56451416 0.13647461 -1.3624878q-0.14117432 -0.7365875 -0.51812744 -1.1257629q-0.3951416 -0.40159607 -0.88623047 -0.3075714z" fill-rule="nonzero"/><path fill="#ffffff" d="m740.98535 303.40396q1.7341309 -0.33206177 2.946045 0.26315308q1.211853 0.59521484 1.4707642 1.9456177q0.26483154 1.3811035 -0.45690918 2.3465576l3.6677246 -0.7022705l0.25006104 1.3043518l-10.542847 2.0187073l-0.22949219 -1.1969299l0.8322754 -0.22302246q-1.1322021 -0.59454346 -1.4028931 -2.0063477q-0.2647705 -1.381073 0.62579346 -2.3788757q0.8751831 -0.9948425 2.7167358 -1.3474426l0.1227417 -0.023498535zm0.09661865 1.3337402q-1.2890625 0.24682617 -1.9197388 0.9403076q-0.6489868 0.6810913 -0.46362305 1.6478577q0.22650146 1.1816101 1.381897 1.5649109l3.637024 -0.69641113q0.9317627 -0.78292847 0.7022705 -1.9798889q-0.1795044 -0.9360962 -1.0220337 -1.3474731q-0.85791016 -0.40844727 -2.315796 -0.12930298zm2.8336792 -6.8782654q0.29711914 1.5498962 -0.5303345 2.7106018q-0.82751465 1.160675 -2.5309448 1.4868469l-0.24554443 0.047027588q-1.1202393 0.21450806 -2.0927124 -0.04473877q-0.97247314 -0.25924683 -1.6260376 -0.9295654q-0.6564331 -0.6856384 -0.8300171 -1.5910339q-0.2854004 -1.4884949 0.5407715 -2.4898682q0.8233032 -1.0167236 2.6341553 -1.3634644l0.5371094 -0.10284424l0.9885864 5.1560974q1.1297607 -0.24813843 1.699707 -1.0095215q0.5699463 -0.7614136 0.38458252 -1.7281799q-0.13238525 -0.69055176 -0.4998169 -1.1133728q-0.3857422 -0.43521118 -0.91381836 -0.7000122l0.46087646 -0.9154968q1.6585693 0.68466187 2.0234375 2.5875244zm-6.781372 1.4734497q0.15002441 0.7826233 0.83618164 1.2080688q0.67077637 0.42837524 1.7225342 0.35424805l-0.7296753 -3.805664l-0.107421875 0.020568848q-0.97332764 0.23406982 -1.4163208 0.8279724q-0.46124268 0.58151245 -0.30529785 1.3948059zm1.9846802 -4.8335266q-1.1202393 0.21450806 -2.0927124 -0.04473877q-0.99072266 -0.27166748 -1.6165161 -0.9631958q-0.6411743 -0.6885681 -0.83532715 -1.7013855q-0.29718018 -1.5498962 0.5946655 -2.7070007q0.888855 -1.1724548 2.6843872 -1.5162659l0.092041016 -0.017608643q1.1049194 -0.21157837 2.0773926 0.047668457q0.9571533 0.2621765 1.6011963 0.9661255q0.6411133 0.6885681 0.83825684 1.7167358q0.2942505 1.5345459 -0.5946655 2.7070007q-0.89178467 1.1571045 -2.6566162 1.4950256l-0.09210205 0.01763916zm-0.09661865 -1.3337708q1.2584229 -0.24093628 1.9139404 -0.9709778q0.65545654 -0.730072 0.4671631 -1.7121887q-0.19122314 -0.9974365 -1.0703125 -1.4336548q-0.8944702 -0.43325806 -2.2910156 -0.16586304q-1.2583618 0.2409668 -1.9109497 0.98635864q-0.6708374 0.7329712 -0.48254395 1.7150879q0.18536377 0.96676636 1.0674438 1.418335q0.87908936 0.43618774 2.3062744 0.16290283zm-2.621338 -13.672089q1.7341309 -0.33206177 2.945984 0.26315308q1.2119141 0.59521484 1.4708252 1.9456177q0.2647705 1.3811035 -0.4569702 2.3465576l3.6677856 -0.702301l0.25006104 1.3043823l-10.542847 2.0187073l-0.22949219 -1.1969604l0.8322754 -0.22299194q-1.1322021 -0.59454346 -1.4028931 -2.0063477q-0.26483154 -1.381073 0.6257324 -2.3788757q0.87524414 -0.9948425 2.7167358 -1.3474426l0.122802734 -0.023498535zm0.09661865 1.3337402q-1.2890625 0.24682617 -1.9197998 0.9403076q-0.6489868 0.6810913 -0.46362305 1.6478577q0.2265625 1.1815796 1.381897 1.5649109l3.637085 -0.69641113q0.93170166 -0.782959 0.7022095 -1.9798889q-0.17944336 -0.9360657 -1.0219727 -1.3474731q-0.85791016 -0.40844727 -2.315796 -0.12930298zm3.0309448 -5.1024475l0.25006104 1.3043823l-10.803711 2.0686646l-0.25012207 -1.3043823l10.803772 -2.0686646zm-0.8670654 -5.268921q0.29718018 1.5498962 -0.5303345 2.7105713q-0.8274536 1.1607056 -2.5308838 1.4868774l-0.24554443 0.047027588q-1.1203003 0.21450806 -2.0927734 -0.04473877q-0.9724121 -0.25924683 -1.6259766 -0.9295654q-0.65649414 -0.6856384 -0.8300781 -1.5910339q-0.2854004 -1.4884949 0.5408325 -2.4898682q0.8233032 -1.0167236 2.6341553 -1.3634644l0.5371094 -0.10284424l0.9885864 5.1560974q1.1296997 -0.24813843 1.699646 -1.009552q0.5699463 -0.76138306 0.38458252 -1.7281494q-0.13238525 -0.69055176 -0.4998169 -1.1133728q-0.3857422 -0.43521118 -0.9137573 -0.7000122l0.46081543 -0.9154968q1.6586304 0.68466187 2.0234375 2.5875244zm-6.781372 1.4734497q0.15008545 0.7826233 0.8362427 1.2080688q0.67077637 0.42837524 1.7224731 0.35424805l-0.7296753 -3.8056946l-0.107421875 0.020568848q-0.97332764 0.23410034 -1.4162598 0.8280029q-0.46124268 0.58151245 -0.3053589 1.3948059z" fill-rule="nonzero"/><path fill="#000000" fill-opacity="0.0" d="m648.15045 439.36365l-33.29138 -170.11023l36.472473 -7.1496277l33.29132 170.11026z" fill-rule="evenodd"/><path fill="#ffffff" d="m660.1176 401.57617l4.001953 -0.7845154l0.2640381 1.3494263l-10.227173 2.0047913l-0.73828125 -3.7721863q-0.33007812 -1.6867371 0.3425293 -2.8057861q0.6726074 -1.1190186 2.083252 -1.3955383q1.4873047 -0.29156494 2.4830322 0.48449707q0.97735596 0.7637634 1.319458 2.5118408l0.4711914 2.4074707zm-1.1040039 0.21640015l-0.47418213 -2.4227905q-0.21307373 -1.0887146 -0.8300781 -1.5568848q-0.62005615 -0.4835205 -1.5859985 -0.29415894q-0.9199829 0.18035889 -1.3426514 0.8682556q-0.44091797 0.6755676 -0.25823975 1.6906128l0.48919678 2.4994507l4.001953 -0.78448486zm1.963623 -13.071014q1.036377 0.57702637 1.3244629 2.0491028q0.23706055 1.2113953 -0.34222412 1.9937134q-0.5822754 0.76693726 -1.9592896 1.0527954l-4.9525757 0.9708557l-0.25512695 -1.3034058l4.921997 -0.96484375q1.7172852 -0.3366394 1.4412231 -1.7473755q-0.29107666 -1.4873962 -1.4911499 -1.7616882l-5.5352783 1.085083l-0.25506592 -1.3034058l7.6052856 -1.4908447l0.24304199 1.2420654l-0.7453003 0.177948zm-4.8532104 -9.097107q1.732666 -0.33966064 2.949707 0.26565552q1.2140503 0.58999634 1.4781494 1.9393921q0.28204346 1.4414062 -0.57684326 2.421814l0.8859863 -0.10998535l0.23406982 1.1960449l-10.794556 2.1160583l-0.25506592 -1.3034058l4.032593 -0.7904968q-1.1343384 -0.58969116 -1.40448 -1.9697571q-0.2730713 -1.3954163 0.631897 -2.3848267q0.8865967 -1.00177 2.6959229 -1.3564453l0.12261963 -0.024047852zm0.101745605 1.3334656q-1.3186035 0.2584839 -1.9372559 0.92111206q-0.6369629 0.6502991 -0.44787598 1.616333q0.2520752 1.2880859 1.5560913 1.6056519l3.281311 -0.643219q1.0789185 -0.832489 0.8328247 -2.0898743q-0.18304443 -0.9353943 -1.0057373 -1.3154602q-0.8226929 -0.38009644 -2.279358 -0.09454346zm3.013977 -5.1008606l0.25506592 1.3034058l-10.794556 2.1160278l-0.25506592 -1.3034058l10.794556 -2.1160278zm-0.68310547 -3.490509l0.25506592 1.3034058l-7.6052246 1.4908447l-0.25512695 -1.3034058l7.6052856 -1.4908447zm-9.34082 3.2799988q-0.32202148 0.06314087 -0.5726929 -0.07879639q-0.2536621 -0.15725708 -0.3256836 -0.5252991q-0.07501221 -0.3833313 0.10064697 -0.62475586q0.17565918 -0.24142456 0.49761963 -0.30456543q0.32202148 -0.06311035 0.5756836 0.09414673q0.23834229 0.16027832 0.3133545 0.54364014q0.072021484 0.36801147 -0.088256836 0.6064148q-0.1786499 0.22610474 -0.5006714 0.2892151zm7.416626 -8.230896q-0.1350708 -0.69003296 -0.651062 -1.130249q-0.5313721 -0.43719482 -1.1720581 -0.37530518l-0.24005127 -1.2267151q0.6499634 -0.095581055 1.3289795 0.20123291q0.6636963 0.2998047 1.154419 0.93603516q0.4876709 0.62091064 0.63775635 1.3876038q0.3031006 1.5487366 -0.54418945 2.670166q-0.86260986 1.1244507 -2.6565552 1.4761047l-0.21466064 0.04208374q-1.1193237 0.21942139 -2.0560303 -0.010925293q-0.93969727 -0.24572754 -1.5650635 -0.9192505q-0.64068604 -0.6705017 -0.84173584 -1.6979065q-0.25213623 -1.2880554 0.3494873 -2.2817078q0.60162354 -0.99368286 1.8162842 -1.2954712l0.24005127 1.2267456q-0.723999 0.20559692 -1.1002808 0.8048096q-0.37927246 0.5838623 -0.23223877 1.3352356q0.19207764 0.9813843 1.020752 1.3921509q0.81036377 0.39840698 2.159668 0.13391113l0.24536133 -0.048095703q1.3032837 -0.25549316 1.9189453 -0.93344116q0.60028076 -0.6749573 0.40222168 -1.6870117zm-6.5460815 -13.272949l0.86724854 4.4315796l3.6186523 -0.7093506l-1.0083618 -5.1522827l1.1040039 -0.21640015l1.2723999 6.5016785l-10.227234 2.0047913l-1.2573853 -6.424988l1.1193237 -0.21942139l0.99334717 5.075592l3.28125 -0.643219l-0.86724854 -4.431549l1.1040039 -0.21643066zm0.5153198 -1.9227295q-1.7479858 0.34265137 -2.9680786 -0.27798462q-1.2353516 -0.61764526 -1.4963989 -1.9517212q-0.2611084 -1.3340759 0.50579834 -2.2964478l-3.9712524 0.7784729l-0.25506592 -1.3033752l10.794556 -2.1160583l0.23406982 1.1960754l-0.8006592 0.22064209q1.1036987 0.5956726 1.37677 1.9910889q0.25811768 1.3187256 -0.65319824 2.3571777q-0.9265747 1.0414429 -2.6592407 1.3811035l-0.107299805 0.021026611zm-0.09875488 -1.3181152q1.2879639 -0.25250244 1.9189453 -0.9334717q0.6156006 -0.677948 0.43255615 -1.6133423q-0.24310303 -1.2420349 -1.4581299 -1.5929871l-3.4959717 0.68530273q-0.95928955 0.7930908 -0.72216797 2.004486q0.18603516 0.9507141 1.0270386 1.3431396q0.84106445 0.39239502 2.2977295 0.10687256zm0.64556885 -12.40271q1.036377 0.5770569 1.3244629 2.0491333q0.23706055 1.2113953 -0.34222412 1.9936829q-0.5822754 0.7669678 -1.9592896 1.0528259l-4.9525757 0.9708252l-0.25512695 -1.3033752l4.921936 -0.96484375q1.7173462 -0.3366394 1.4412842 -1.7473755q-0.2911377 -1.4874268 -1.4911499 -1.7616882l-5.5352783 1.0850525l-0.25506592 -1.3034058l7.6052246 -1.4908142l0.24310303 1.2420349l-0.7453003 0.177948zm-1.399353 -6.25531q-0.13500977 -0.69003296 -0.651062 -1.1302185q-0.5313721 -0.43722534 -1.1720581 -0.37530518l-0.24005127 -1.2267456q0.6500244 -0.09555054 1.3290405 0.20123291q0.66363525 0.2998047 1.1543579 0.93603516q0.48773193 0.62091064 0.63775635 1.3876038q0.3031006 1.5487671 -0.54418945 2.6701965q-0.8625488 1.1244202 -2.6565552 1.4761047l-0.21466064 0.04208374q-1.1193237 0.21942139 -2.0560303 -0.010955811q-0.93963623 -0.24569702 -1.5650024 -0.91922q-0.6407471 -0.6705322 -0.8417969 -1.6979065q-0.2520752 -1.2880859 0.34954834 -2.2817383q0.6015625 -0.99365234 1.8162231 -1.2954712l0.24005127 1.2267456q-0.723938 0.20559692 -1.1002808 0.8048096q-0.37927246 0.5838623 -0.23223877 1.3352356q0.19207764 0.9813843 1.020752 1.3921509q0.81036377 0.3984375 2.159668 0.13391113l0.24536133 -0.048065186q1.3033447 -0.25549316 1.9189453 -0.9334717q0.60028076 -0.6749573 0.40222168 -1.6870117zm-0.8745117 -9.349884q-0.20898438 0.15240479 -0.76135254 0.3403015q1.1124268 0.7213745 1.3584595 1.9787598q0.21911621 1.1193848 -0.2685547 1.9633179q-0.5029297 0.84695435 -1.4689331 1.0363159q-1.1959839 0.23443604 -2.0170288 -0.54403687q-0.83636475 -0.77545166 -1.15448 -2.400879l-0.24908447 -1.2727356l-0.5979614 0.117248535q-0.69000244 0.1352539 -1.0076294 0.6274109q-0.3206787 0.47683716 -0.16461182 1.2742004q0.1350708 0.69003296 0.5807495 1.096283q0.4303589 0.4092102 0.93634033 0.31002808l0.25506592 1.3034058q-0.5673218 0.111206055 -1.166687 -0.18527222q-0.6176758 -0.3088379 -1.0593872 -0.9387512q-0.45703125 -0.6269226 -0.6190796 -1.454956q-0.25805664 -1.3187256 0.25720215 -2.184021q0.51226807 -0.88061523 1.65625 -1.1367188l3.4959717 -0.68530273q1.0426636 -0.20437622 1.6203003 -0.58828735l0.10736084 -0.021057129l0.26708984 1.3647461zm-0.57354736 2.357483q-0.12005615 -0.6133728 -0.534729 -1.1052856q-0.4300537 -0.48892212 -0.9840698 -0.6350708l-1.548645 0.30358887l0.20111084 1.0273743q0.46514893 2.3768005 1.8604736 2.1032715q0.61328125 -0.12023926 0.8726196 -0.5850525q0.25628662 -0.48013306 0.13323975 -1.1088257zm-9.829651 -5.40094l1.8399658 -0.36068726l-0.27911377 -1.4260559l1.0120239 -0.19839478l0.27905273 1.4260864l4.7072754 -0.92276q0.46002197 -0.09017944 0.6539917 -0.3192749q0.190979 -0.24441528 0.10095215 -0.70443726q-0.041992188 -0.21469116 -0.21203613 -0.5953369l1.0579834 -0.20739746q0.24005127 0.49432373 0.33306885 0.9696655q0.17108154 0.87405396 -0.26324463 1.420929q-0.44958496 0.54989624 -1.4155884 0.7392578l-4.7072754 0.92276l0.27008057 1.3800659l-1.0120239 0.19836426l-0.27008057 -1.3800659l-1.8399658 0.36068726l-0.25506592 -1.3034058zm8.594727 -6.1973267l0.25506592 1.3034058l-7.6052246 1.4908447l-0.25512695 -1.3034058l7.6052856 -1.4908447zm-9.34082 3.2799988q-0.32202148 0.06314087 -0.5726929 -0.07879639q-0.2536621 -0.15725708 -0.3256836 -0.5252991q-0.07501221 -0.3833313 0.10064697 -0.62475586q0.17565918 -0.24142456 0.49761963 -0.3045349q0.32202148 -0.06314087 0.5756836 0.09411621q0.23834229 0.16027832 0.3133545 0.54364014q0.072021484 0.36801147 -0.088256836 0.6064148q-0.1786499 0.22610474 -0.5006714 0.2892151zm5.1358643 -4.2649536q-1.1193237 0.21942139 -2.0926514 -0.035614014q-0.9916992 -0.26733398 -1.6201172 -0.9562073q-0.64367676 -0.68585205 -0.84173584 -1.6979065q-0.3031006 -1.5487366 0.5841675 -2.7098694q0.88427734 -1.1764526 2.6782227 -1.5281067l0.09197998 -0.018035889q1.1040039 -0.21643066 2.0773926 0.038604736q0.9580078 0.25802612 1.6046753 0.9592285q0.6437378 0.68585205 0.8447876 1.7132263q0.30010986 1.5334167 -0.5841675 2.7098694q-0.88726807 1.1611023 -2.6505737 1.5067749l-0.09197998 0.018035889zm-0.101745605 -1.3334656q1.2573242 -0.24645996 1.9099121 -0.97943115q0.6526489 -0.7330017 0.4605713 -1.714386q-0.19506836 -0.9967041 -1.0757446 -1.4291382q-0.8960571 -0.42938232 -2.2913208 -0.15588379q-1.2573242 0.24649048 -1.9069824 0.994812q-0.66796875 0.7359619 -0.4758911 1.7173462q0.18908691 0.96606445 1.0727539 1.4138184q0.88067627 0.43240356 2.3067017 0.15286255zm-5.5510254 -7.7002563l0.9569702 -0.23535156q-1.2750244 -0.6576538 -1.5480957 -2.0530396q-0.47418213 -2.4227905 2.2521362 -2.9731445l5.013977 -0.98287964l0.25506592 1.3034058l-5.029297 0.98587036q-0.8280029 0.162323 -1.1392822 0.60546875q-0.32666016 0.446167 -0.17358398 1.2282104q0.123046875 0.6286926 0.5563965 1.0532532q0.4303589 0.40924072 1.0333252 0.56170654l5.4126587 -1.0610046l0.25506592 1.3034058l-7.6052856 1.4908447l-0.24005127 -1.2267456z" fill-rule="nonzero"/><path fill="#000000" fill-opacity="0.0" d="m268.3321 433.27383l29.228363 -186.14174l36.724396 5.7637787l-29.228363 186.14172z" fill-rule="evenodd"/><path fill="#ffffff" d="m294.49432 394.09122q1.6071472 0.4420166 2.3424683 1.6013184q0.71987915 1.1568604 0.45568848 2.8393555q-0.28601074 1.8214417 -1.7547302 2.7138672q-1.4841309 0.89004517 -3.676056 0.5460205l-0.98791504 -0.15505981q-1.4355469 -0.22528076 -2.4360962 -0.90426636q-1.0159607 -0.6813965 -1.4546814 -1.7150269q-0.4387207 -1.0336609 -0.24481201 -2.2685242q0.2569275 -1.6362 1.3381958 -2.4787292q1.0658569 -0.8449707 2.697876 -0.7628174l-0.21331787 1.3583679q-1.2485352 -0.006164551 -1.8963318 0.49319458q-0.64779663 0.4993286 -0.81503296 1.5644226q-0.20358276 1.2966003 0.65252686 2.190155q0.84069824 0.8911133 2.6158447 1.1697083l0.98791504 0.15505981q1.6825256 0.2640686 2.7795105 -0.27548218q1.0993958 -0.5550232 1.2957153 -1.8053284q0.17694092 -1.1268005 -0.23791504 -1.8087463q-0.41244507 -0.6973877 -1.6621399 -1.0991211l0.21328735 -1.3583679zm4.2723083 -5.854065q-0.24850464 0.07171631 -0.8317566 0.05923462q0.7986145 1.0585022 0.5998535 2.3242493q-0.17694092 1.126831 -0.9237366 1.7529602q-0.76223755 0.6237488 -1.7347107 0.47113037q-1.20401 -0.18896484 -1.7093201 -1.2014465q-0.52075195 -1.0148926 -0.26382446 -2.6510925l0.20117188 -1.2811584l-0.60198975 -0.09448242q-0.6946411 -0.10903931 -1.1614075 0.24475098q-0.46435547 0.3383484 -0.59039307 1.1410217q-0.109069824 0.6946106 0.1708374 1.2288208q0.2644348 0.53182983 0.7738342 0.6117554l-0.20602417 1.3120728q-0.5711365 -0.089660645 -1.0329285 -0.57336426q-0.474823 -0.5015564 -0.674469 -1.2445984q-0.21508789 -0.7455139 -0.084228516 -1.5790405q0.20846558 -1.3274841 0.9885559 -1.9642334q0.7825012 -0.65219116 1.9450684 -0.5013428l3.5194092 0.55233765q1.0496521 0.16473389 1.7237244 0.0016784668l0.108062744 0.016937256l-0.21572876 1.3738098zm-1.3450928 2.018982q0.096954346 -0.61743164 -0.12451172 -1.2215881q-0.23690796 -0.6065674 -0.70751953 -0.9334717l-1.559021 -0.24468994l-0.16241455 1.0342102q-0.3756714 2.3925476 1.0290222 2.6130066q0.61743164 0.09689331 1.02005 -0.25112915q0.4050293 -0.36346436 0.50439453 -0.9963379zm-0.8798828 -12.22522q1.7442627 0.2737732 2.683319 1.2435913q0.9390564 0.9698181 0.72576904 2.328186q-0.21813965 1.3892212 -1.2240295 2.0538025l3.689209 0.57901l-0.20602417 1.3120422l-10.604553 -1.6643677l0.1890564 -1.2039795l0.8586731 0.071502686q-0.86428833 -0.94229126 -0.6412964 -2.3623962q0.21813965 -1.3892212 1.3938293 -2.0271301q1.1602478 -0.64035034 3.0125732 -0.3496399l0.12347412 0.019378662zm-0.36038208 1.2878113q-1.2966309 -0.20349121 -2.124817 0.23590088q-0.8411865 0.42156982 -0.9938965 1.3940125q-0.18661499 1.1885681 0.77093506 1.9398804l3.6583252 0.5741577q1.1417542 -0.42181396 1.3308105 -1.625824q0.14785767 -0.94158936 -0.50582886 -1.6135559q-0.6690979 -0.67440796 -2.1355286 -0.90457153zm4.5788574 -3.7771301l-0.20602417 1.3120422l-7.6562805 -1.2016296l0.20602417 -1.3120422l7.6562805 1.2016296zm-9.898987 -0.114349365q-0.3241272 -0.050872803 -0.51116943 -0.27001953q-0.18460083 -0.23458862 -0.12640381 -0.6050415q0.060577393 -0.38589478 0.30819702 -0.5526428q0.24761963 -0.16674805 0.57177734 -0.115875244q0.3241577 0.050872803 0.508728 0.28546143q0.16918945 0.23214722 0.10858154 0.618042q-0.058166504 0.3704834 -0.29034424 0.53964233q-0.24520874 0.15130615 -0.56936646 0.10043335zm0.99783325 -5.246704l1.8523254 0.29071045l0.22543335 -1.4355164l1.0187683 0.15988159l-0.22540283 1.4355469l4.738861 0.7437439q0.46307373 0.07269287 0.72369385 -0.07620239q0.26306152 -0.16433716 0.3357849 -0.6274109q0.03390503 -0.21609497 0.004333496 -0.631958l1.0650635 0.16714478q0.056518555 0.54663086 -0.018615723 1.0251465q-0.13815308 0.8798218 -0.73327637 1.2451172q-0.61053467 0.3628235 -1.5830078 0.21020508l-4.738861 -0.7437439l-0.21813965 1.3892212l-1.0187988 -0.15988159l0.21813965 -1.3892212l-1.8523254 -0.29074097l0.20602417 -1.3120422zm10.714203 -6.185547q-0.24850464 0.07168579 -0.8317566 0.05923462q0.7986145 1.0585022 0.5998535 2.3242493q-0.17694092 1.1268005 -0.9237366 1.7529602q-0.76223755 0.6237488 -1.7346802 0.47113037q-1.20401 -0.18896484 -1.7093506 -1.2014465q-0.52072144 -1.0148926 -0.26382446 -2.6510925l0.20117188 -1.281189l-0.60198975 -0.09448242q-0.6946106 -0.10900879 -1.1614075 0.2447815q-0.46435547 0.3383484 -0.59039307 1.1409912q-0.109069824 0.6946106 0.1708374 1.2288513q0.2644348 0.53182983 0.7738342 0.6117554l-0.20602417 1.3120422q-0.5711365 -0.08963013 -1.0329285 -0.57333374q-0.474823 -0.5015564 -0.674469 -1.2446289q-0.21508789 -0.7454834 -0.084228516 -1.57901q0.20846558 -1.3274841 0.9885559 -1.9642334q0.7825012 -0.65219116 1.9450684 -0.5013733l3.5194092 0.55236816q1.0496521 0.16473389 1.7237244 0.0016479492l0.108062744 0.016967773l-0.21572876 1.3738098zm-1.3450928 2.018982q0.096954346 -0.61743164 -0.12451172 -1.2215881q-0.23690796 -0.6065674 -0.707489 -0.9335022l-1.5590515 -0.24465942l-0.16238403 1.0341797q-0.3757019 2.3925781 1.0289917 2.613037q0.61743164 0.09689331 1.02005 -0.25112915q0.4050293 -0.36346436 0.50439453 -0.9963379zm2.0630798 -6.5914307l-0.20602417 1.3120728l-10.866974 -1.7055359l0.20602417 -1.3120728l10.866974 1.7055359zm0.5517273 -3.5136414l-0.20602417 1.3120422l-7.6562805 -1.2016296l0.20602417 -1.3120422l7.6562805 1.2016296zm-9.898987 -0.114349365q-0.3241272 -0.050872803 -0.51116943 -0.27001953q-0.18460083 -0.23458862 -0.12640381 -0.6050415q0.060577393 -0.38589478 0.30819702 -0.5526428q0.24761963 -0.16674805 0.57177734 -0.115875244q0.3241577 0.050872803 0.50875854 0.28546143q0.16915894 0.23214722 0.108551025 0.618042q-0.058166504 0.3704834 -0.29034424 0.53964233q-0.24520874 0.15130615 -0.56936646 0.10043335zm8.906067 -6.7575684q-0.5402527 -0.08477783 -0.8965759 0.2705078q-0.35629272 0.35531616 -0.71450806 1.3271484q-0.37121582 0.9539795 -0.7566223 1.4945068q-0.39840698 0.52267456 -0.8457947 0.7529602q-0.46038818 0.21246338 -1.0315247 0.122802734q-0.92614746 -0.14535522 -1.4484253 -1.0497742q-0.5377197 -0.90682983 -0.34381104 -2.141693q0.20358276 -1.2966309 1.0087891 -1.9926758q0.7922363 -0.7139282 1.8418884 -0.54919434l-0.20602417 1.3120422q-0.5402832 -0.08477783 -0.99887085 0.3177185q-0.45620728 0.38708496 -0.5652771 1.0816956q-0.11392212 0.72546387 0.1317749 1.1752625q0.24572754 0.44979858 0.75509644 0.5297241q0.46310425 0.07269287 0.7682495 -0.2590027q0.30755615 -0.34713745 0.6763611 -1.285675q0.37121582 -0.9539795 0.7744751 -1.5075378q0.38781738 -0.55596924 0.86605835 -0.7814026q0.47827148 -0.22546387 1.0957031 -0.12854004q1.0187988 0.15988159 1.507782 1.0748901q0.48898315 0.91500854 0.28295898 2.2270508q-0.14300537 0.91070557 -0.5786438 1.5698853q-0.43566895 0.6591797 -1.0852661 0.9684448q-0.64715576 0.29385376 -1.3263245 0.18725586l0.20358276 -1.2966309q0.6710205 0.057891846 1.1320496 -0.3600769q0.46347046 -0.43338013 0.58950806 -1.236023q0.11633301 -0.7409363 -0.106658936 -1.2346191q-0.23599243 -0.5115051 -0.72994995 -0.5890503zm-4.968445 -5.12381l0.8538208 0.102386475q-0.85461426 -1.0040283 -0.6316223 -2.4241333q0.2520752 -1.6053162 1.579071 -1.9980774q-0.49752808 -0.45767212 -0.74017334 -1.128418q-0.24264526 -0.67071533 -0.11175537 -1.5042725q0.39508057 -2.5160522 3.070343 -2.1278076l5.1247864 0.8043213l-0.20361328 1.2966309l-5.047577 -0.7922058q-0.81811523 -0.12841797 -1.2800598 0.19448853q-0.47491455 0.3050537 -0.61309814 1.184906q-0.1138916 0.7254944 0.25619507 1.2897034q0.35705566 0.5463257 1.0704346 0.7373657l5.0784607 0.7970581l-0.20602417 1.3120422l-5.0167236 -0.7873535q-1.6670837 -0.2616272 -1.9240112 1.3745728q-0.20117188 1.2811584 0.81967163 1.9316711l5.5878296 0.87701416l-0.20358276 1.2966003l-7.6562805 -1.2016296l0.19390869 -1.2348633zm8.696167 -18.616394q-0.5402527 -0.08477783 -0.8965454 0.2705078q-0.35632324 0.35531616 -0.7145386 1.3271484q-0.37121582 0.9539795 -0.7565918 1.4945068q-0.39840698 0.52267456 -0.8457947 0.7529602q-0.4604187 0.21243286 -1.0315552 0.122802734q-0.92614746 -0.14535522 -1.4484253 -1.0497742q-0.5377197 -0.90682983 -0.34381104 -2.141693q0.20358276 -1.2966309 1.0088196 -1.9927063q0.7922058 -0.7139282 1.8418579 -0.5491638l-0.20602417 1.3120422q-0.5402527 -0.08480835 -0.99887085 0.3177185q-0.45617676 0.38705444 -0.5652466 1.0816956q-0.11392212 0.72546387 0.1317749 1.1752625q0.24569702 0.44976807 0.75509644 0.5297241q0.46307373 0.07269287 0.768219 -0.2590027q0.30758667 -0.34713745 0.6763611 -1.2857056q0.37124634 -0.9539795 0.7744751 -1.5075073q0.38781738 -0.55596924 0.86608887 -0.7814331q0.47827148 -0.22543335 1.0957031 -0.12854004q1.0187683 0.15991211 1.5077515 1.0749207q0.48898315 0.91500854 0.28295898 2.2270508q-0.14300537 0.91070557 -0.5786438 1.5698853q-0.43563843 0.6591797 -1.0852356 0.9684448q-0.64715576 0.29385376 -1.326355 0.18725586l0.20358276 -1.2966309q0.671051 0.057861328 1.1320801 -0.3600769q0.46347046 -0.43338013 0.58947754 -1.2360535q0.116363525 -0.74090576 -0.10662842 -1.2345886q-0.23602295 -0.51153564 -0.72998047 -0.5890503zm0.97250366 -5.4883423l-5.461029 -2.6917725l0.21813965 -1.3892212l8.347076 4.457489q1.8025818 1.010437 1.5577698 2.569458l-0.05419922 0.24456787l-0.17019653 0.47940063l-1.065094 -0.16714478l0.086639404 -0.3501892q0.10421753 -0.6637573 -0.115478516 -1.0778198q-0.20181274 -0.427063 -0.8755188 -0.77005005l-0.7257385 -0.4144287l-8.008118 1.542633l0.22543335 -1.4355164l6.0403137 -0.997406zm1.2754822 -8.827881q-0.5402832 -0.08480835 -0.8965759 0.2705078q-0.35629272 0.35528564 -0.71450806 1.3271179q-0.37124634 0.9539795 -0.7566223 1.4945374q-0.39840698 0.52267456 -0.8457947 0.7529602q-0.46038818 0.21243286 -1.0315247 0.122802734q-0.926178 -0.14538574 -1.4484558 -1.0497742q-0.5377197 -0.90686035 -0.34381104 -2.1417236q0.20361328 -1.2966003 1.0088196 -1.9926758q0.7922058 -0.7139282 1.8418579 -0.54919434l-0.20602417 1.3120422q-0.5402527 -0.08477783 -0.99887085 0.3177185q-0.45617676 0.38708496 -0.5652466 1.0816956q-0.11392212 0.7254944 0.1317749 1.1752625q0.24569702 0.44979858 0.75509644 0.52975464q0.46307373 0.07266235 0.768219 -0.2590332q0.30758667 -0.34713745 0.6763916 -1.285675q0.37121582 -0.9539795 0.7744751 -1.5075378q0.38781738 -0.55596924 0.86605835 -0.7814026q0.47827148 -0.22543335 1.0957031 -0.12854004q1.0187683 0.15991211 1.5077515 1.0748901q0.48898315 0.91500854 0.2829895 2.2270508q-0.14300537 0.9107361 -0.5786743 1.5699158q-0.43563843 0.65914917 -1.0852356 0.9684448q-0.64715576 0.29382324 -1.326355 0.18722534l0.20361328 -1.2966003q0.6710205 0.057861328 1.1320496 -0.3600769q0.46347046 -0.43338013 0.58950806 -1.2360535q0.11633301 -0.7409363 -0.106658936 -1.2345886q-0.23602295 -0.51153564 -0.72994995 -0.5890503zm-6.735962 -5.9548035l1.8523254 0.29071045l0.22540283 -1.4355164l1.0187988 0.15988159l-0.22543335 1.4355469l4.7388916 0.7437439q0.46307373 0.07269287 0.72369385 -0.07620239q0.26306152 -0.16433716 0.3357544 -0.6274109q0.033935547 -0.21609497 0.004333496 -0.631958l1.065094 0.16714478q0.056518555 0.54663086 -0.018615723 1.0251465q-0.13815308 0.8798523 -0.73327637 1.2451172q-0.61053467 0.3628235 -1.5830078 0.21020508l-4.7388916 -0.7437439l-0.21810913 1.3892212l-1.0187988 -0.15988159l0.21813965 -1.3892212l-1.8523254 -0.29074097l0.20602417 -1.3120422zm10.610748 -4.620178q-0.2447815 1.559021 -1.4162598 2.371582q-1.1714783 0.81256104 -2.8848877 0.54364014l-0.24697876 -0.038757324q-1.126831 -0.17684937 -1.9542542 -0.74957275q-0.8274231 -0.5726929 -1.2156372 -1.4244385q-0.3857727 -0.8671875 -0.24276733 -1.7778931q0.23510742 -1.4972839 1.351471 -2.1603394q1.1188049 -0.6784973 2.9402466 -0.39260864l0.5402527 0.08477783l-0.8143616 5.1864624q1.1470947 0.14840698 1.9411011 -0.37545776q0.79400635 -0.5238342 0.9466858 -1.4963074q0.109069824 -0.6946106 -0.09362793 -1.2167358q-0.21572876 -0.539978 -0.6230774 -0.9676819l0.74349976 -0.7057495q1.3291626 1.2050171 1.028595 3.1190796zm-6.880249 -0.9058533q-0.12362671 0.78723145 0.3781128 1.4195251q0.4862976 0.62991333 1.5011292 0.91571045l0.60110474 -3.8280945l-0.108062744 -0.016967773q-0.9951782 -0.10873413 -1.6130066 0.30041504q-0.63082886 0.3912964 -0.75927734 1.2094116zm-0.01586914 -6.043335l0.8538208 0.102386475q-0.85461426 -1.0040283 -0.6316223 -2.4241333q0.2520752 -1.6053162 1.579071 -1.9980774q-0.49752808 -0.45767212 -0.74017334 -1.128418q-0.24264526 -0.67071533 -0.11175537 -1.504242q0.39508057 -2.5160522 3.070343 -2.1278076l5.1247864 0.8043213l-0.20361328 1.2966003l-5.047577 -0.7922058q-0.81811523 -0.12838745 -1.2800293 0.19451904q-0.47494507 0.3050537 -0.61309814 1.1848755q-0.11392212 0.7254944 0.25616455 1.2897034q0.35705566 0.5463562 1.0704346 0.73739624l5.0784607 0.7970276l-0.20602417 1.3120422l-5.0167236 -0.7873535q-1.6670837 -0.2616272 -1.9240112 1.3745728q-0.20117188 1.2811584 0.81967163 1.9317017l5.5878296 0.87698364l-0.20358276 1.2966003l-7.6562805 -1.2016296l0.19390869 -1.2348633z" fill-rule="nonzero"/></g></svg>