<svg id="Capa_1" data-name="Capa 1" xmlns="http://www.w3.org/2000/svg" viewBox="0 0 1920 1080"><defs><style>.cls-1,.cls-5{fill:none;stroke:#ff4500;stroke-miterlimit:10;}.cls-1{stroke-width:3px;}.cls-2{font-size:40px;fill:#ff4500;font-family:Cambria;}.cls-3{letter-spacing:-0.02em;}.cls-4{letter-spacing:-0.01em;}.cls-5{fill-rule:evenodd;}</style></defs><title>design</title><path class="cls-1" d="M307.34,372.49c-23.17,64.56-68.17,101.59-102,95-24.29-4.73-39.46-31.29-49-48-10.45-18.3-36.32-63.6-14-98,22.94-35.36,84.68-40.47,99-21,14.56,19.8-27.88,54.15-15,82,21.84,47.22,169.06,2.86,182,36,10.77,27.6-74.48,101.68-102,85-36.64-22.21,23.64-208.46,46-206,11.18,1.23,18.53,50.31,10,91-7.89,37.62-27.92,61.31-32,66-43.53,50-123.8,67.08-141,45-12.66-16.26,19-40.7,12-95-4-30.9-16.82-43-9-54,13.27-18.73,71-13.14,81,12,9.11,22.79-22,59-29,56-11.26-4.79,16.7-121,33-120s56.2,121.64-5,173c-44.64,37.46-126.21,23.92-139-6-6.07-14.18,8.95-41.12,39-95,21-37.66,25.23-38.86,31-57,15-47.08-3.91-69.18,12-85,21.64-21.53,86.15-10,104,26,5.28,10.67,7.29,25.15,0,50-25.49,86.83-108.43,109.08-101,137,7.68,28.9,107.24,45.25,147,4,23.88-24.78,16.27-60.06,26-61,16.11-1.57,58.16,93.21,25,132-13.41,15.68-49.94,19.45-123,27-41.31,4.26-58.21,3.89-59,9-1.37,8.8,44.88,34.38,82,26,81.57-18.42,133.08-204,80-252-52.66-47.57-192.18,54.87-231,6-14.43-18.16-9.14-49.89,4-68,23.26-32.08,84.39-39.7,104-18,45.59,50.46-139.54,252.6-101,291,10.73,10.69,65-13.06,173-61,92.67-41.13,124.44-59.28,128-88,2.63-21.24-13-24.91-26-75-12.53-48.48-4.91-72.37-19-79-19.86-9.35-59,26.83-55,35,4.85,9.95,70.46-28.47,92-6,16.27,17,1.5,62.62-23,90-34,38-95.42,50.49-107,34-15.62-22.25,52.09-107.73,66-101,22.91,11.08-51.86,295.71-150,302-30.92,2-59.08-24-57-30,3.93-11.43,116.56,48.89,201,2,46.78-26,77.26-80.62,65-98-26.19-37.12-231.32,118.34-320,47-36.7-29.53-33.2-81.59-33-84,7.56-91.57,143.77-178.45,238-153,103,27.8,138.36,185.45,201,172,29.27-6.29,44.72-45.7,72-39,23.35,5.73,25.61,38,42,39,29.62,1.87,46.19-102,70-102,38,0,56.8,265,95,266,32.68.82,42.25-192.64,109-203,47.4-7.36,79.65,84.46,116,77,70.88-14.55,50.49-384.73,58-385,8.91-.32,34.24,521.06,56,521,13.14,0,25.11-190.51,42-190,9.62.29,12.64,62.35,26,63,17,.83,21.71-99.76,57-107,17.67-3.63,23.87,31.58,60,49,29.64,14.29,72.65,8.37,100,7,40-2,136.16-10.5,213.16-6.5"/><rect class="cls-1" x="1538.84" y="309.99" width="250" height="250"/><text class="cls-2" transform="translate(226.67 737.96)">chaos</text><text class="cls-2" transform="translate(839.58 737.96)">t<tspan class="cls-3" x="13.54" y="0">r</tspan><tspan x="29.39" y="0">ans</tspan><tspan class="cls-4" x="88.44" y="0">f</tspan><tspan x="100.06" y="0">ormation</tspan></text><text class="cls-2" transform="translate(1574.72 737.96)">solution</text><text class="cls-2" transform="translate(906.53 883.96)">DESIGN</text><path class="cls-5" d="M1419,667v7c0,11-28.54,20-63.75,20H564.75c-35.21,0-63.75-9-63.75-20v-7"/><path class="cls-5" d="M451,667v7c0,11-10.91,20-24.37,20H124.38c-13.47,0-24.38-9-24.38-20v-7"/><path class="cls-5" d="M1820,667v7c0,11-10.91,20-24.37,20H1493.38c-13.47,0-24.38-9-24.38-20v-7"/><path class="cls-5" d="M1743,785.48v8.21c0,13-47.85,23.47-106.87,23.47H310.87c-59,0-106.87-10.51-106.87-23.47v-8.21"/></svg>