<svg id="Capa" xmlns="http://www.w3.org/2000/svg" viewBox="0 0 632.29 160.25"><defs><style>.cls-1{fill:none;stroke:#ede8dd;stroke-miterlimit:10;stroke-width:5px;}</style></defs><title>Recurso 9</title><g id="Capa_2" data-name="Capa 2"><g id="Capa_2-2" data-name="Capa 2"><rect class="cls-1" x="272" y="46.59" width="91.23" height="91.23" transform="translate(158.23 -197.58) rotate(45)"/><path class="cls-1" d="M109.84,65.21a53.62,53.62,0,1,1-3-17.88A53.67,53.67,0,0,1,109.84,65.21Z"/><polygon class="cls-1" points="616.03 25.09 629.5 75.8 592.41 112.92 541.86 99.33 528.39 48.61 565.48 11.49 616.03 25.09"/><path class="cls-1" d="M97,30.38c17,21.33,38,80.33,71,81.33s85-20,85-20"/><path class="cls-1" d="M382,92.71s18.15-49.13,27-62c11-16,23.11-30.1,43-28,11.52,1.21,27.39,15,25.86,32.11C476,55.71,485.94,63.09,493,65.71c14.35,5.32,52.75-30.93,40.3-22h0"/></g></g></svg>
